<?xml version="1.0" encoding="UTF-8"?><svg id="Laag_2" xmlns="http://www.w3.org/2000/svg" viewBox="0 0 432.27 149.19"><defs><style>.cls-1,.cls-2{stroke-width:0px;}.cls-2{fill:#1d1d1b;}</style></defs><g id="Laag_1-2"><path class="cls-1" d="M0,.26h24.93l20.86,39.07-12.29,22.54L0,.26ZM41.82.26h25.37l-12.64,23.52L41.82.26Z"/><path class="cls-1" d="M72.41.26h21.93v60.12h-21.93V.26ZM110.95,15.82v27.58l-13.61-13.79,13.61-13.79ZM104.67.26h23.78v24.22L104.67.26ZM129.43,35.27v25.11h-23.78l23.78-25.11Z"/><path class="cls-1" d="M139.95,33.15l25.11,27.23h-25.11v-27.23ZM186.89,60.38h-4.86l-38.63-41.99c-1.86-2.03-3.01-4.77-3.01-7.69,0-6.28,4.07-10.52,11.14-10.52h4.86l38.63,41.99c1.86,2.03,3.01,4.77,3.01,7.69,0,6.28-4.07,10.52-11.14,10.52ZM197.24.26v25.37L173.46.26h23.78Z"/><path class="cls-1" d="M208.55.26h21.93v60.12h-21.93V.26ZM247.1,36.78V.09c16.18,0,24.75,5.83,24.75,18.3s-8.57,18.39-24.75,18.39Z"/><path class="cls-1" d="M277.95.26h21.93v60.12h-21.93V.26ZM316.5,15.82v27.58l-13.61-13.79,13.61-13.79ZM310.22.26h23.78v24.22L310.22.26ZM334.97,35.27v25.11h-23.78l23.78-25.11Z"/><path class="cls-1" d="M347.27.26h21.92v60.12h-21.92V.26ZM371.66,30.59h14.15V0c16.27,0,25.37,3.71,25.37,16.62,0,9.99-6.72,15.29-16.97,17.15l21.22,26.61h-27.14l-16.62-29.79Z"/><path class="cls-1" d="M12.22,88.89c1.63,0,2.98.22,4.03.67,1.05.44,1.99.96,2.81,1.55.5.34.87.38,1.13.12.26-.26.44-.88.54-1.86h.85c-.05.84-.09,1.87-.11,3.07s-.04,2.8-.04,4.78h-.85c-.17-.98-.33-1.76-.48-2.34-.15-.58-.33-1.08-.54-1.49-.21-.41-.49-.82-.84-1.23-.77-.93-1.73-1.61-2.9-2.03-1.16-.42-2.39-.63-3.68-.63-1.21,0-2.31.28-3.29.84s-1.82,1.36-2.53,2.41c-.71,1.05-1.25,2.31-1.63,3.79s-.58,3.14-.58,4.99.21,3.6.63,5.07c.42,1.47,1.01,2.7,1.76,3.71.76,1,1.65,1.76,2.68,2.27s2.14.77,3.33.77c1.12,0,2.28-.21,3.49-.62,1.21-.41,2.17-1.07,2.86-1.98.54-.66.92-1.38,1.13-2.15.21-.77.4-1.86.58-3.25h.85c0,2.07.01,3.74.04,5s.06,2.33.11,3.19h-.85c-.1-.98-.27-1.59-.5-1.84-.24-.25-.63-.22-1.17.1-.92.59-1.89,1.11-2.92,1.56-1.03.44-2.35.67-3.96.67-2.35,0-4.42-.49-6.19-1.47-1.77-.98-3.15-2.39-4.12-4.24s-1.47-4.06-1.47-6.66.51-4.78,1.52-6.69c1.01-1.91,2.41-3.4,4.18-4.47,1.77-1.07,3.81-1.61,6.11-1.61Z"/><path class="cls-1" d="M35.11,95.48c1.58,0,3.01.32,4.27.96,1.26.64,2.27,1.64,3.03,3.01.76,1.37,1.13,3.14,1.13,5.33s-.38,3.96-1.13,5.31c-.76,1.35-1.77,2.35-3.03,2.99-1.26.64-2.69.96-4.27.96s-2.98-.32-4.25-.96c-1.28-.64-2.29-1.63-3.05-2.99-.76-1.35-1.13-3.12-1.13-5.31s.38-3.96,1.13-5.33,1.77-2.37,3.05-3.01c1.28-.64,2.69-.96,4.25-.96ZM35.11,96.16c-1.41,0-2.57.67-3.47,2.02-.9,1.34-1.36,3.54-1.36,6.59s.45,5.24,1.36,6.58c.9,1.33,2.06,2,3.47,2s2.57-.67,3.47-2c.9-1.33,1.36-3.52,1.36-6.58s-.45-5.25-1.36-6.59c-.9-1.34-2.06-2.02-3.47-2.02Z"/><path class="cls-1" d="M59.56,95.48c.87,0,1.62.11,2.27.34.64.23,1.18.55,1.6.96.47.46.79,1.05.97,1.78.17.73.26,1.63.26,2.7v9.12c0,.96.22,1.61.65,1.95.43.34,1.16.51,2.17.51v.72c-.42-.02-1.07-.05-1.93-.09-.87-.03-1.71-.05-2.53-.05s-1.62.02-2.4.05-1.37.06-1.77.09v-.72c.89,0,1.52-.17,1.9-.51.37-.34.56-.99.56-1.95v-9.87c0-.71-.05-1.35-.15-1.95s-.35-1.07-.74-1.43-1.04-.55-1.93-.55c-.97,0-1.83.27-2.58.82-.76.55-1.35,1.29-1.78,2.24-.43.95-.65,2-.65,3.16v7.58c0,.96.19,1.61.56,1.95.37.34,1,.51,1.9.51v.72c-.4-.02-.99-.05-1.77-.09s-1.58-.05-2.4-.05-1.66.02-2.53.05c-.87.03-1.51.06-1.93.09v-.72c1.01,0,1.74-.17,2.17-.51.43-.34.65-.99.65-1.95v-10.69c0-1.03-.2-1.78-.59-2.27-.4-.49-1.14-.73-2.23-.73v-.72c.79.07,1.56.1,2.3.1s1.41-.04,2.06-.12c.66-.08,1.26-.2,1.8-.36v4.03c.64-1.48,1.52-2.54,2.64-3.18,1.12-.64,2.27-.96,3.46-.96ZM70.74,95.48c.87,0,1.62.11,2.27.34.64.23,1.18.55,1.6.96.47.46.79,1.05.97,1.78.17.73.26,1.63.26,2.7v9.12c0,.96.22,1.61.65,1.95.43.34,1.16.51,2.17.51v.72c-.42-.02-1.07-.05-1.93-.09-.87-.03-1.71-.05-2.53-.05s-1.62.02-2.4.05-1.37.06-1.77.09v-.72c.89,0,1.52-.17,1.9-.51.37-.34.56-.99.56-1.95v-9.87c0-.71-.05-1.35-.15-1.95-.1-.59-.35-1.07-.74-1.43-.4-.36-1.04-.55-1.93-.55-.97,0-1.83.27-2.58.82s-1.35,1.29-1.78,2.22c-.43.93-.65,1.98-.65,3.14l-.11-3.18c.67-1.57,1.57-2.65,2.71-3.23,1.14-.58,2.3-.87,3.49-.87Z"/><path class="cls-1" d="M93.48,95.48c.87,0,1.62.11,2.27.34.64.23,1.18.55,1.6.96.47.46.79,1.05.97,1.78.17.73.26,1.63.26,2.7v9.12c0,.96.22,1.61.65,1.95.43.34,1.16.51,2.17.51v.72c-.42-.02-1.07-.05-1.93-.09-.87-.03-1.71-.05-2.53-.05s-1.62.02-2.4.05-1.37.06-1.77.09v-.72c.89,0,1.52-.17,1.9-.51.37-.34.56-.99.56-1.95v-9.87c0-.71-.05-1.35-.15-1.95s-.35-1.07-.74-1.43-1.04-.55-1.93-.55c-.97,0-1.83.27-2.58.82-.76.55-1.35,1.29-1.78,2.24-.43.95-.65,2-.65,3.16v7.58c0,.96.19,1.61.56,1.95.37.34,1,.51,1.9.51v.72c-.4-.02-.99-.05-1.77-.09s-1.58-.05-2.4-.05-1.66.02-2.53.05c-.87.03-1.51.06-1.93.09v-.72c1.01,0,1.74-.17,2.17-.51.43-.34.65-.99.65-1.95v-10.69c0-1.03-.2-1.78-.59-2.27-.4-.49-1.14-.73-2.23-.73v-.72c.79.07,1.56.1,2.3.1s1.41-.04,2.06-.12c.66-.08,1.26-.2,1.8-.36v4.03c.64-1.48,1.52-2.54,2.64-3.18,1.12-.64,2.27-.96,3.46-.96ZM104.66,95.48c.87,0,1.62.11,2.27.34.64.23,1.18.55,1.6.96.47.46.79,1.05.97,1.78.17.73.26,1.63.26,2.7v9.12c0,.96.22,1.61.65,1.95.43.34,1.16.51,2.17.51v.72c-.42-.02-1.07-.05-1.93-.09-.87-.03-1.71-.05-2.53-.05s-1.62.02-2.4.05-1.37.06-1.77.09v-.72c.89,0,1.52-.17,1.9-.51.37-.34.56-.99.56-1.95v-9.87c0-.71-.05-1.35-.15-1.95-.1-.59-.35-1.07-.74-1.43-.4-.36-1.04-.55-1.93-.55-.97,0-1.83.27-2.58.82s-1.35,1.29-1.78,2.22c-.43.93-.65,1.98-.65,3.14l-.11-3.18c.67-1.57,1.57-2.65,2.71-3.23,1.14-.58,2.3-.87,3.49-.87Z"/><path class="cls-1" d="M124.17,95.48c2.18,0,3.88.61,5.11,1.83,1.23,1.22,1.84,3.11,1.84,5.69h-13.12l-.04-.65h9.59c.05-1.12-.05-2.15-.3-3.09-.25-.94-.64-1.7-1.17-2.27-.53-.57-1.22-.85-2.06-.85-1.14,0-2.15.52-3.03,1.57-.88,1.05-1.41,2.71-1.58,4.99l.11.14c-.05.34-.09.72-.11,1.13-.03.41-.04.82-.04,1.23,0,1.55.27,2.88.82,4,.54,1.12,1.26,1.96,2.14,2.54.88.58,1.79.87,2.73.87.74,0,1.45-.11,2.12-.32.67-.22,1.29-.57,1.86-1.08s1.07-1.17,1.49-2.02l.74.27c-.27.75-.72,1.48-1.34,2.19-.62.71-1.4,1.28-2.34,1.73-.94.44-2.03.67-3.27.67-1.78,0-3.31-.38-4.59-1.13-1.28-.75-2.25-1.79-2.93-3.12-.68-1.33-1.02-2.86-1.02-4.59,0-2,.35-3.73,1.04-5.18.69-1.45,1.67-2.56,2.94-3.35,1.26-.78,2.74-1.18,4.42-1.18Z"/><path class="cls-1" d="M146.43,95.48c.67,0,1.26.13,1.77.38.51.25.9.58,1.19.97s.43.85.43,1.35c0,.57-.19,1.07-.58,1.5s-.9.65-1.54.65c-.52,0-.98-.15-1.37-.46-.4-.31-.59-.75-.59-1.31,0-.43.13-.8.39-1.11.26-.31.55-.55.87-.73-.17-.23-.43-.34-.78-.34-.77,0-1.47.21-2.12.63-.64.42-1.19.96-1.63,1.62-.45.66-.79,1.36-1.04,2.1-.25.74-.37,1.43-.37,2.07v7.24c0,1.12.35,1.86,1.06,2.24.71.38,1.67.56,2.88.56v.72c-.57-.02-1.38-.05-2.42-.09-1.04-.03-2.14-.05-3.31-.05-.84,0-1.68.02-2.51.05-.83.03-1.46.06-1.88.09v-.72c1.01,0,1.74-.17,2.17-.51.43-.34.65-.99.65-1.95v-10.69c0-1.03-.2-1.78-.59-2.27-.4-.49-1.14-.73-2.23-.73v-.72c.79.07,1.56.1,2.3.1s1.41-.04,2.06-.12c.66-.08,1.26-.2,1.8-.36v4.27c.27-.66.66-1.33,1.17-2,.51-.67,1.12-1.24,1.84-1.69s1.51-.68,2.38-.68Z"/><path class="cls-1" d="M160.88,95.48c.79,0,1.56.09,2.3.27.74.18,1.41.46,2.01.82.57.34,1,.73,1.3,1.18.3.44.45.93.45,1.45,0,.62-.19,1.09-.56,1.42-.37.33-.84.5-1.41.5s-1.02-.15-1.43-.44c-.41-.3-.61-.72-.61-1.26s.15-.94.46-1.26c.31-.32.67-.52,1.1-.62-.25-.41-.69-.75-1.32-1.02-.63-.27-1.31-.41-2.03-.41-.62,0-1.24.14-1.86.41-.62.27-1.19.72-1.71,1.35-.52.63-.94,1.48-1.26,2.56-.32,1.08-.48,2.43-.48,4.05,0,2,.25,3.6.74,4.78.5,1.18,1.15,2.03,1.95,2.54.8.51,1.69.77,2.66.77.64,0,1.3-.11,1.97-.34.67-.23,1.3-.6,1.9-1.11.59-.51,1.1-1.2,1.52-2.07l.71.24c-.25.73-.66,1.46-1.23,2.2s-1.31,1.35-2.23,1.83c-.92.48-2.04.72-3.38.72-1.54,0-2.92-.36-4.16-1.09-1.24-.73-2.22-1.77-2.95-3.12-.73-1.35-1.1-2.97-1.1-4.83s.36-3.51,1.1-4.94c.73-1.42,1.75-2.54,3.06-3.35,1.31-.81,2.81-1.21,4.5-1.21Z"/><path class="cls-1" d="M176.74,95.58v14.79c0,.96.22,1.61.65,1.95.43.34,1.16.51,2.17.51v.72c-.42-.02-1.06-.05-1.91-.09s-1.71-.05-2.58-.05-1.7.02-2.56.05c-.87.03-1.51.06-1.93.09v-.72c1.01,0,1.74-.17,2.17-.51.43-.34.65-.99.65-1.95v-10.69c0-1.03-.2-1.78-.59-2.27-.4-.49-1.14-.73-2.23-.73v-.72c.79.07,1.56.1,2.3.1s1.41-.04,2.06-.12c.66-.08,1.26-.2,1.8-.36ZM174.81,87.42c.64,0,1.2.22,1.67.65.47.43.71.95.71,1.54s-.24,1.1-.71,1.54-1.03.65-1.67.65-1.2-.22-1.67-.65-.71-.94-.71-1.54.24-1.1.71-1.54c.47-.43,1.03-.65,1.67-.65Z"/><path class="cls-1" d="M187.67,113.79c-1.02,0-1.9-.18-2.64-.53-.74-.35-1.31-.85-1.69-1.49s-.58-1.38-.58-2.22c0-1,.25-1.82.76-2.46.51-.64,1.16-1.15,1.95-1.54.79-.39,1.63-.71,2.51-.97s1.71-.51,2.51-.75c.79-.24,1.44-.52,1.95-.84s.76-.74.76-1.26v-2.12c0-.96-.15-1.68-.46-2.19-.31-.5-.72-.84-1.24-1.01-.52-.17-1.1-.26-1.75-.26s-1.28.08-1.99.24c-.71.16-1.27.49-1.69.99.47.09.88.32,1.23.68.35.36.52.83.52,1.4s-.2,1.02-.59,1.35c-.4.33-.9.5-1.52.5-.72,0-1.24-.21-1.58-.63-.34-.42-.5-.89-.5-1.42,0-.59.16-1.07.48-1.43s.73-.71,1.23-1.03c.57-.36,1.31-.68,2.21-.94.9-.26,1.93-.39,3.06-.39,1.01,0,1.88.11,2.6.32.72.22,1.31.53,1.78.94.64.55,1.07,1.21,1.26,2s.3,1.72.3,2.82v9.49c0,.57.09.98.28,1.23s.48.38.87.38c.27,0,.53-.06.78-.17s.54-.3.89-.55l.41.58c-.52.36-1.02.67-1.49.9s-1.1.36-1.9.36c-.72,0-1.31-.11-1.78-.34-.47-.23-.82-.56-1.06-1.01-.24-.44-.35-1.01-.35-1.69-.67,1.03-1.47,1.79-2.4,2.29-.93.5-1.98.75-3.14.75ZM189,112.42c.82,0,1.58-.22,2.28-.65.71-.43,1.34-1.08,1.91-1.95v-6.69c-.3.39-.73.71-1.3.97-.57.26-1.19.52-1.86.79-.67.26-1.31.57-1.91.92-.61.35-1.11.81-1.5,1.38-.4.57-.59,1.31-.59,2.22s.27,1.64.8,2.19c.53.55,1.26.82,2.17.82Z"/><path class="cls-1" d="M207.73,86.77v23.6c0,.96.22,1.61.65,1.95.43.34,1.16.51,2.17.51v.72c-.42-.02-1.06-.05-1.91-.09-.85-.03-1.71-.05-2.58-.05s-1.7.02-2.56.05c-.87.03-1.51.06-1.93.09v-.72c1.01,0,1.74-.17,2.17-.51.43-.34.65-.99.65-1.95v-19.5c0-1.02-.2-1.78-.59-2.27-.4-.49-1.14-.73-2.23-.73v-.72c.79.07,1.56.1,2.3.1s1.41-.04,2.06-.12,1.26-.2,1.8-.36Z"/><path class="cls-1" d="M18.54,124.53c-.1.8-.17,1.57-.2,2.32s-.06,1.32-.06,1.71c0,.41.01.8.04,1.18.02.38.05.69.07.94h-.85c-.15-1.34-.36-2.41-.63-3.19-.27-.79-.74-1.34-1.39-1.67-.66-.33-1.64-.5-2.95-.5h-3.08c-.84,0-1.48.06-1.91.19-.43.12-.72.39-.87.78-.15.4-.22,1.02-.22,1.86v16.94c0,.82.07,1.43.22,1.84.15.41.44.68.87.8s1.07.19,1.91.19h2.71c1.56,0,2.74-.19,3.55-.58.8-.39,1.39-1.02,1.75-1.9.36-.88.63-2.07.8-3.57h.85c-.07.61-.11,1.43-.11,2.46,0,.43.02,1.05.06,1.86s.11,1.65.2,2.51c-1.26-.05-2.69-.07-4.27-.09-1.59-.01-3-.02-4.24-.02h-2.1c-.85,0-1.78,0-2.77.02-.99.01-1.99.02-3.01.03-1.02.01-1.98.03-2.9.05v-.68c.84-.05,1.48-.14,1.91-.27s.72-.41.87-.82c.15-.41.22-1.03.22-1.84v-16.94c0-.84-.07-1.46-.22-1.86-.15-.4-.44-.67-.87-.82s-1.07-.23-1.91-.26v-.68c.92.02,1.88.04,2.9.05,1.01.01,2.02.02,3.01.03.99.01,1.91.02,2.77.02h2.1c1.14,0,2.43,0,3.88-.02,1.45-.01,2.74-.04,3.88-.09ZM12.15,136.21v.68h-6.8v-.68h6.8ZM13.23,131.7c-.1,1.3-.14,2.29-.13,2.97.01.68.02,1.31.02,1.88s.01,1.19.04,1.88c.02.68.09,1.67.19,2.97h-.85c-.1-.73-.22-1.44-.35-2.13-.14-.69-.43-1.26-.89-1.71-.46-.44-1.23-.67-2.32-.67v-.68c.82,0,1.44-.15,1.88-.46.43-.31.75-.7.95-1.18.2-.48.33-.97.41-1.49.07-.51.15-.97.22-1.38h.85Z"/><path class="cls-1" d="M30.88,139.8c.1.3.21.6.33.92l-3.08,3.69c-.64.78-.99,1.42-1.02,1.95s.19.92.69,1.18,1.18.43,2.04.5v.68c-.42-.02-.89-.04-1.41-.05-.52-.01-1.02-.02-1.5-.03-.48-.01-.92-.02-1.32-.02-.57,0-1.08,0-1.54.02-.46.01-.89.04-1.28.09v-.68c.47-.05.96-.24,1.47-.6.51-.35,1.11-.95,1.8-1.79l4.83-5.84ZM29.87,131.12v.72c-.47,0-.87.1-1.19.31-.32.21-.36.49-.11.85l9.92,13.29c.42.57.79.97,1.12,1.21.32.24.72.4,1.19.5v.72c-.25-.02-.63-.05-1.13-.09-.51-.03-1.01-.05-1.5-.05-.77,0-1.59.02-2.47.05-.88.03-1.52.06-1.91.09v-.72c.5,0,.9-.11,1.23-.32.32-.22.35-.5.07-.84l-9.92-13.29c-.5-.66-.89-1.1-1.19-1.32-.3-.22-.67-.35-1.11-.39v-.72c.25.02.63.05,1.15.09s1.02.05,1.49.05c.79,0,1.62-.02,2.49-.05.87-.03,1.5-.06,1.9-.09ZM40.05,131.12v.68c-.47.05-.99.27-1.54.67-.56.4-1.13.97-1.73,1.72l-4.27,5.43c-.1-.3-.2-.59-.3-.89l2.9-3.72c.54-.71.89-1.29,1.04-1.74.15-.46.07-.8-.24-1.04-.31-.24-.91-.38-1.8-.43v-.68c.64.02,1.18.05,1.62.07.43.02.93.03,1.5.03s1.08-.01,1.54-.03c.46-.02.89-.05,1.28-.07Z"/><path class="cls-1" d="M51.94,130.64c.79,0,1.56.09,2.3.27.74.18,1.41.46,2.01.82.57.34,1,.73,1.3,1.18.3.44.45.93.45,1.45,0,.62-.19,1.09-.56,1.42-.37.33-.84.5-1.41.5s-1.02-.15-1.43-.44c-.41-.3-.61-.72-.61-1.26s.15-.94.46-1.26c.31-.32.67-.52,1.1-.62-.25-.41-.69-.75-1.32-1.02-.63-.27-1.31-.41-2.03-.41-.62,0-1.24.14-1.86.41-.62.27-1.19.72-1.71,1.35-.52.63-.94,1.48-1.26,2.56-.32,1.08-.48,2.43-.48,4.05,0,2,.25,3.6.74,4.78.5,1.18,1.15,2.03,1.95,2.54.8.51,1.69.77,2.66.77.64,0,1.3-.11,1.97-.34.67-.23,1.3-.6,1.9-1.11.59-.51,1.1-1.2,1.52-2.07l.71.24c-.25.73-.66,1.46-1.23,2.2s-1.31,1.35-2.23,1.83c-.92.48-2.04.72-3.38.72-1.54,0-2.92-.36-4.16-1.09-1.24-.73-2.22-1.77-2.95-3.12-.73-1.35-1.1-2.97-1.1-4.83s.36-3.51,1.1-4.94c.73-1.42,1.75-2.54,3.06-3.35,1.31-.81,2.81-1.21,4.5-1.21Z"/><path class="cls-1" d="M70.67,130.64c2.18,0,3.88.61,5.11,1.83,1.23,1.22,1.84,3.11,1.84,5.69h-13.12l-.04-.65h9.59c.05-1.12-.05-2.15-.3-3.09-.25-.94-.64-1.7-1.17-2.27-.53-.57-1.22-.85-2.06-.85-1.14,0-2.15.52-3.03,1.57-.88,1.05-1.41,2.71-1.58,4.99l.11.14c-.05.34-.09.72-.11,1.13-.03.41-.04.82-.04,1.23,0,1.55.27,2.88.82,4,.54,1.12,1.26,1.96,2.14,2.54.88.58,1.79.87,2.73.87.74,0,1.45-.11,2.12-.32.67-.22,1.29-.57,1.86-1.08s1.07-1.17,1.49-2.02l.74.27c-.27.75-.72,1.48-1.34,2.19-.62.71-1.4,1.28-2.34,1.73-.94.44-2.03.67-3.27.67-1.78,0-3.31-.38-4.59-1.13-1.28-.75-2.25-1.79-2.93-3.12-.68-1.33-1.02-2.86-1.02-4.59,0-2,.35-3.73,1.04-5.18.69-1.45,1.67-2.56,2.94-3.35,1.26-.78,2.74-1.18,4.42-1.18Z"/><path class="cls-1" d="M87.28,121.93v23.6c0,.96.22,1.61.65,1.95.43.34,1.16.51,2.17.51v.72c-.42-.02-1.06-.05-1.91-.09-.85-.03-1.71-.05-2.58-.05s-1.7.02-2.56.05c-.87.03-1.51.06-1.93.09v-.72c1.01,0,1.74-.17,2.17-.51.43-.34.65-.99.65-1.95v-19.5c0-1.02-.2-1.78-.59-2.27-.4-.49-1.14-.73-2.23-.73v-.72c.79.07,1.56.1,2.3.1s1.41-.04,2.06-.12,1.26-.2,1.8-.36Z"/><path class="cls-1" d="M98.83,121.93v23.6c0,.96.22,1.61.65,1.95.43.34,1.16.51,2.17.51v.72c-.42-.02-1.06-.05-1.91-.09-.85-.03-1.71-.05-2.58-.05s-1.7.02-2.56.05c-.87.03-1.51.06-1.93.09v-.72c1.01,0,1.74-.17,2.17-.51.43-.34.65-.99.65-1.95v-19.5c0-1.02-.2-1.78-.59-2.27-.4-.49-1.14-.73-2.23-.73v-.72c.79.07,1.56.1,2.3.1s1.41-.04,2.06-.12,1.26-.2,1.8-.36Z"/><path class="cls-1" d="M113.13,130.64c2.18,0,3.88.61,5.11,1.83,1.23,1.22,1.84,3.11,1.84,5.69h-13.12l-.04-.65h9.59c.05-1.12-.05-2.15-.3-3.09-.25-.94-.64-1.7-1.17-2.27-.53-.57-1.22-.85-2.06-.85-1.14,0-2.15.52-3.03,1.57-.88,1.05-1.41,2.71-1.58,4.99l.11.14c-.05.34-.09.72-.11,1.13-.03.41-.04.82-.04,1.23,0,1.55.27,2.88.82,4,.54,1.12,1.26,1.96,2.14,2.54.88.58,1.79.87,2.73.87.74,0,1.45-.11,2.12-.32.67-.22,1.29-.57,1.86-1.08s1.07-1.17,1.49-2.02l.74.27c-.27.75-.72,1.48-1.34,2.19-.62.71-1.4,1.28-2.34,1.73-.94.44-2.03.67-3.27.67-1.78,0-3.31-.38-4.59-1.13-1.28-.75-2.25-1.79-2.93-3.12-.68-1.33-1.02-2.86-1.02-4.59,0-2,.35-3.73,1.04-5.18.69-1.45,1.67-2.56,2.94-3.35,1.26-.78,2.74-1.18,4.42-1.18Z"/><path class="cls-1" d="M136.32,130.64c.94,0,1.73.11,2.36.34.63.23,1.16.55,1.58.96.47.46.8,1.03,1,1.71s.3,1.61.3,2.77v9.12c0,.96.22,1.61.65,1.95.43.34,1.16.51,2.17.51v.72c-.42-.02-1.07-.05-1.93-.09-.87-.03-1.71-.05-2.53-.05s-1.62.02-2.4.05-1.37.06-1.76.09v-.72c.89,0,1.52-.17,1.89-.51.37-.34.56-.99.56-1.95v-9.87c0-.71-.06-1.35-.19-1.95s-.4-1.07-.84-1.43c-.43-.36-1.1-.55-1.99-.55-1.04,0-1.95.27-2.73.82-.78.55-1.39,1.29-1.82,2.24-.43.95-.65,2-.65,3.16v7.58c0,.96.19,1.61.56,1.95.37.34,1,.51,1.9.51v.72c-.4-.02-.99-.05-1.77-.09s-1.58-.05-2.4-.05-1.66.02-2.53.05c-.87.03-1.51.06-1.93.09v-.72c1.01,0,1.74-.17,2.17-.51.43-.34.65-.99.65-1.95v-10.69c0-1.03-.2-1.78-.59-2.27-.4-.49-1.14-.73-2.23-.73v-.72c.79.07,1.56.1,2.3.1s1.41-.04,2.06-.12c.66-.08,1.26-.2,1.8-.36v4.03c.64-1.55,1.54-2.62,2.69-3.23,1.15-.6,2.36-.91,3.62-.91Z"/><path class="cls-1" d="M156.23,130.64c.79,0,1.56.09,2.3.27.74.18,1.41.46,2.01.82.57.34,1,.73,1.3,1.18.3.44.45.93.45,1.45,0,.62-.19,1.09-.56,1.42-.37.33-.84.5-1.41.5s-1.02-.15-1.43-.44c-.41-.3-.61-.72-.61-1.26s.15-.94.46-1.26c.31-.32.67-.52,1.1-.62-.25-.41-.69-.75-1.32-1.02-.63-.27-1.31-.41-2.03-.41-.62,0-1.24.14-1.86.41-.62.27-1.19.72-1.71,1.35-.52.63-.94,1.48-1.26,2.56-.32,1.08-.48,2.43-.48,4.05,0,2,.25,3.6.74,4.78.5,1.18,1.15,2.03,1.95,2.54.8.51,1.69.77,2.66.77.64,0,1.3-.11,1.97-.34.67-.23,1.3-.6,1.9-1.11.59-.51,1.1-1.2,1.52-2.07l.71.24c-.25.73-.66,1.46-1.23,2.2s-1.31,1.35-2.23,1.83c-.92.48-2.04.72-3.38.72-1.54,0-2.92-.36-4.16-1.09-1.24-.73-2.22-1.77-2.95-3.12-.73-1.35-1.1-2.97-1.1-4.83s.36-3.51,1.1-4.94c.73-1.42,1.75-2.54,3.06-3.35,1.31-.81,2.81-1.21,4.5-1.21Z"/><path class="cls-1" d="M174.96,130.64c2.18,0,3.88.61,5.11,1.83,1.23,1.22,1.84,3.11,1.84,5.69h-13.12l-.04-.65h9.59c.05-1.12-.05-2.15-.3-3.09-.25-.94-.64-1.7-1.17-2.27-.53-.57-1.22-.85-2.06-.85-1.14,0-2.15.52-3.03,1.57-.88,1.05-1.41,2.71-1.58,4.99l.11.14c-.05.34-.09.72-.11,1.13-.03.41-.04.82-.04,1.23,0,1.55.27,2.88.82,4,.54,1.12,1.26,1.96,2.14,2.54.88.58,1.79.87,2.73.87.74,0,1.45-.11,2.12-.32.67-.22,1.29-.57,1.86-1.08s1.07-1.17,1.49-2.02l.74.27c-.27.75-.72,1.48-1.34,2.19-.62.71-1.4,1.28-2.34,1.73-.94.44-2.03.67-3.27.67-1.78,0-3.31-.38-4.59-1.13-1.28-.75-2.25-1.79-2.93-3.12-.68-1.33-1.02-2.86-1.02-4.59,0-2,.35-3.73,1.04-5.18.69-1.45,1.67-2.56,2.94-3.35,1.26-.78,2.74-1.18,4.42-1.18Z"/><path class="cls-1" d="M189.26,144.82c.64,0,1.2.22,1.67.65.47.43.71.95.71,1.54s-.24,1.1-.71,1.54c-.47.43-1.03.65-1.67.65s-1.2-.22-1.67-.65-.71-.94-.71-1.54.23-1.1.71-1.54c.47-.43,1.03-.65,1.67-.65Z"/><path class="cls-2" d="M423.91,51.27h2.89c.48,0,.87.07,1.18.21.59.27.88.77.88,1.5,0,.38-.08.69-.24.93-.16.24-.38.44-.66.58.25.1.43.23.56.4.13.16.2.43.21.8l.03.85c0,.24.03.42.06.54.05.2.14.33.28.39v.14h-1.05c-.03-.05-.05-.13-.07-.21s-.03-.25-.04-.5l-.05-1.06c-.02-.42-.17-.69-.45-.83-.16-.08-.41-.12-.75-.12h-1.9v2.72h-.86v-6.35ZM426.71,54.18c.39,0,.7-.08.93-.24.23-.16.34-.45.34-.87,0-.45-.16-.76-.48-.93-.17-.09-.4-.13-.69-.13h-2.04v2.17h1.93Z"/><path class="cls-2" d="M426.27,60.35c-3.31,0-6-2.69-6-6s2.69-6,6-6,6,2.69,6,6-2.69,6-6,6ZM426.27,49.13c-2.88,0-5.22,2.34-5.22,5.22s2.34,5.22,5.22,5.22,5.22-2.34,5.22-5.22-2.34-5.22-5.22-5.22Z"/></g></svg>