<?xml version="1.0" encoding="UTF-8"?><svg id="Laag_2" xmlns="http://www.w3.org/2000/svg" viewBox="0 0 401.88 110.35"><defs><style>.cls-1{stroke-width:0px;}</style></defs><g id="Laag_1-2"><path class="cls-1" d="M0,1.1h44.2l36.99,69.28-21.79,39.97L0,1.1ZM74.14,1.1h44.99l-22.41,41.69L74.14,1.1Z"/><path class="cls-1" d="M128.53,54.39c0-35.11,22.73-53.61,45.61-54.39v108.78c-22.88-1.25-45.61-19.28-45.61-54.39ZM192.95.94h42.32v43.1L192.95.94ZM235.43,63.17v44.51h-42.16l42.16-44.51Z"/><path class="cls-1" d="M266.78,1.1h38.87v106.58h-38.87V1.1ZM335.12,28.68v48.9l-24.14-24.45,24.14-24.45ZM323.99,1.1h42.16v42.95L323.99,1.1ZM367.88,63.17v44.51h-42.16l42.16-44.51Z"/><path class="cls-1" d="M387.95,92.52h4.81c.79,0,1.45.12,1.96.35.98.45,1.46,1.29,1.46,2.5,0,.63-.13,1.15-.39,1.56-.26.4-.63.73-1.1.97.41.17.72.39.93.66.21.27.33.72.35,1.33l.05,1.42c.01.4.05.7.1.9.09.34.24.55.46.65v.24h-1.76c-.05-.09-.09-.21-.12-.35s-.05-.42-.07-.84l-.09-1.77c-.03-.69-.28-1.16-.75-1.39-.27-.13-.68-.19-1.25-.19h-3.17v4.54h-1.43v-10.59ZM392.61,97.37c.65,0,1.17-.13,1.55-.4.38-.27.57-.75.57-1.46,0-.75-.27-1.27-.8-1.54-.28-.14-.67-.22-1.14-.22h-3.41v3.62h3.22Z"/><path class="cls-1" d="M391.88,107.65c-5.51,0-10-4.49-10-10s4.49-10,10-10,10,4.49,10,10-4.49,10-10,10ZM391.88,88.96c-4.8,0-8.7,3.9-8.7,8.7s3.9,8.7,8.7,8.7,8.7-3.9,8.7-8.7-3.9-8.7-8.7-8.7Z"/></g></svg>