<?xml version="1.0" encoding="UTF-8"?><svg id="Laag_2" xmlns="http://www.w3.org/2000/svg" viewBox="0 0 401.88 279.61"><defs><style>.cls-1{stroke-width:0px;}</style></defs><g id="Laag_1-2"><path class="cls-1" d="M0,1.1h44.2l36.99,69.28-21.79,39.97L0,1.1ZM74.14,1.1h44.99l-22.41,41.69L74.14,1.1Z"/><path class="cls-1" d="M128.53,54.39c0-35.11,22.73-53.61,45.61-54.39v108.78c-22.88-1.25-45.61-19.28-45.61-54.39ZM192.95.94h42.32v43.1L192.95.94ZM235.43,63.17v44.51h-42.16l42.16-44.51Z"/><path class="cls-1" d="M266.78,1.1h38.87v106.58h-38.87V1.1ZM335.12,28.68v48.9l-24.14-24.45,24.14-24.45ZM323.99,1.1h42.16v42.95L323.99,1.1ZM367.88,63.17v44.51h-42.16l42.16-44.51Z"/><path class="cls-1" d="M28.75,153.02v.81c-.58.13-1.2.5-1.86,1.09-.65.59-1.26,1.55-1.81,2.86l-9.9,23.96h-1.44l-10.82-25.33c-.44-.99-.92-1.67-1.44-2.02s-1.02-.54-1.48-.56v-.81c.67.03,1.49.05,2.47.08.97.03,1.93.04,2.86.04,1.19,0,2.32-.01,3.38-.04,1.06-.03,1.91-.05,2.55-.08v.81c-.96.03-1.7.13-2.22.32-.52.19-.81.52-.85.99-.04.47.12,1.16.5,2.08l8.07,19.48-.79.81,7.07-17.18c.67-1.64,1-2.92,1-3.85s-.32-1.59-.96-2-1.57-.62-2.79-.64v-.81c.9.03,1.79.05,2.66.08.87.03,1.7.04,2.49.04.73,0,1.35-.01,1.88-.04.52-.03,1-.05,1.44-.08Z"/><path class="cls-1" d="M38.78,160.2c2.56,0,4.57.71,6.02,2.14,1.45,1.43,2.18,3.68,2.18,6.78h-15.05l-.09-.77h10.51c.03-1.32-.09-2.53-.35-3.65s-.67-2.01-1.22-2.68c-.55-.67-1.28-1.01-2.18-1.01-1.25,0-2.33.61-3.25,1.83-.92,1.22-1.48,3.18-1.68,5.87l.13.2c-.03.38-.06.79-.09,1.23-.03.44-.04.88-.04,1.31,0,1.86.31,3.42.92,4.68.61,1.27,1.41,2.21,2.4,2.84s1.99.95,3.01.95c.78,0,1.55-.11,2.29-.34.74-.23,1.45-.62,2.12-1.17.67-.55,1.26-1.31,1.79-2.28l.87.32c-.35.91-.89,1.82-1.61,2.7-.73.89-1.66,1.61-2.79,2.16-1.13.55-2.46.83-3.97.83-2.04,0-3.81-.42-5.32-1.27s-2.68-2.06-3.49-3.65c-.81-1.59-1.22-3.47-1.22-5.65,0-2.39.42-4.44,1.26-6.13.84-1.7,2.03-2.99,3.56-3.89,1.53-.9,3.29-1.35,5.3-1.35Z"/><path class="cls-1" d="M59.2,160.2c1.16,0,2.17.17,3.03.5.86.34,1.48.64,1.85.91.96.7,1.56.24,1.79-1.37h.96c-.06.75-.1,1.66-.13,2.72-.03,1.06-.04,2.47-.04,4.21h-.96c-.18-.99-.47-1.96-.89-2.9-.42-.94-1.03-1.72-1.83-2.34-.8-.62-1.84-.93-3.12-.93-.96,0-1.76.25-2.4.75-.64.5-.96,1.23-.96,2.2,0,.81.26,1.51.78,2.1.52.59,1.2,1.14,2.03,1.65.83.51,1.72,1.06,2.68,1.65,1.08.67,2.04,1.34,2.9,2,.86.66,1.54,1.39,2.05,2.2.51.81.76,1.75.76,2.82,0,1.24-.36,2.28-1.07,3.15-.71.86-1.65,1.51-2.81,1.96-1.16.44-2.44.66-3.84.66-.7,0-1.35-.06-1.96-.18-.61-.12-1.18-.28-1.7-.46-.32-.16-.63-.33-.94-.5-.31-.18-.6-.34-.89-.51-.29-.19-.55-.16-.78.08-.23.24-.41.67-.52,1.29h-.96c.06-.86.1-1.91.13-3.15.03-1.24.04-2.88.04-4.92h.96c.2,1.48.51,2.78.92,3.91.41,1.13,1.01,2.01,1.81,2.64.8.63,1.9.95,3.29.95.55,0,1.1-.11,1.66-.34.55-.23,1.01-.6,1.37-1.11.36-.51.54-1.2.54-2.06,0-1.18-.44-2.16-1.33-2.92-.89-.77-2.03-1.58-3.43-2.44-.99-.64-1.93-1.28-2.81-1.92-.89-.63-1.61-1.34-2.16-2.14-.55-.79-.83-1.74-.83-2.84,0-1.21.31-2.2.94-2.99.62-.78,1.46-1.36,2.51-1.75,1.05-.39,2.17-.58,3.36-.58Z"/><path class="cls-1" d="M79.49,160.32v24.72c0,1.18.36,1.98,1.09,2.38.73.4,1.73.6,3.01.6v.85c-.67-.03-1.6-.06-2.79-.1-1.19-.04-2.47-.06-3.84-.06-.96,0-1.9.02-2.83.06-.93.04-1.64.07-2.14.1v-.85c1.02,0,1.74-.18,2.16-.54.42-.36.63-1.04.63-2.04v-20.29c0-1.21-.22-2.1-.66-2.68-.44-.58-1.27-.87-2.49-.87v-.85c.93.08,1.83.12,2.71.12.96,0,1.88-.05,2.75-.14.87-.09,1.67-.23,2.4-.42ZM86.42,160.2c1.51,0,2.87.38,4.08,1.15s2.16,1.89,2.86,3.37c.7,1.48,1.05,3.32,1.05,5.53,0,1.61-.2,3.14-.61,4.58-.41,1.44-1.03,2.7-1.86,3.79-.83,1.09-1.87,1.95-3.12,2.58-1.25.63-2.73.95-4.45.95-1.28,0-2.41-.26-3.38-.77-.97-.51-1.67-1.16-2.07-1.94l.44-.56c.38.67.91,1.22,1.59,1.65.68.43,1.53.64,2.55.64,1.51,0,2.7-.45,3.56-1.35.86-.9,1.46-2.12,1.81-3.67.35-1.55.52-3.3.52-5.26,0-2.2-.18-3.98-.52-5.34-.35-1.36-.87-2.35-1.57-2.99-.7-.63-1.54-.95-2.53-.95-1.31,0-2.49.48-3.55,1.45-1.06.97-1.71,2.42-1.94,4.36l-.44-.85c.38-2.02,1.26-3.58,2.64-4.7,1.38-1.12,3.03-1.67,4.95-1.67Z"/><path class="cls-1" d="M109.41,160.2c2.56,0,4.57.71,6.02,2.14,1.45,1.43,2.18,3.68,2.18,6.78h-15.05l-.09-.77h10.51c.03-1.32-.09-2.53-.35-3.65s-.67-2.01-1.22-2.68c-.55-.67-1.28-1.01-2.18-1.01-1.25,0-2.33.61-3.25,1.83-.92,1.22-1.48,3.18-1.68,5.87l.13.2c-.03.38-.06.79-.09,1.23-.03.44-.04.88-.04,1.31,0,1.86.31,3.42.92,4.68.61,1.27,1.41,2.21,2.4,2.84s1.99.95,3.01.95c.78,0,1.55-.11,2.29-.34.74-.23,1.45-.62,2.12-1.17.67-.55,1.26-1.31,1.79-2.28l.87.32c-.35.91-.89,1.82-1.61,2.7-.73.89-1.66,1.61-2.79,2.16-1.13.55-2.46.83-3.97.83-2.04,0-3.81-.42-5.32-1.27s-2.68-2.06-3.49-3.65c-.81-1.59-1.22-3.47-1.22-5.65,0-2.39.42-4.44,1.26-6.13.84-1.7,2.03-2.99,3.56-3.89,1.53-.9,3.29-1.35,5.3-1.35Z"/><path class="cls-1" d="M135.68,160.2c.84,0,1.56.16,2.16.48.59.32,1.05.73,1.35,1.23.31.5.46,1.06.46,1.67,0,.78-.25,1.45-.76,2-.51.55-1.18.83-2.03.83-.73,0-1.35-.2-1.86-.6s-.76-.96-.76-1.65c0-.59.17-1.09.5-1.51.33-.42.72-.75,1.16-.99-.29-.21-.64-.31-1.05-.28-.78.03-1.51.26-2.18.71-.67.44-1.24,1.01-1.7,1.69-.47.68-.83,1.42-1.09,2.2-.26.78-.39,1.51-.39,2.18v9.28c0,1.32.39,2.2,1.18,2.64.78.44,1.88.67,3.27.67v.85c-.67-.03-1.62-.06-2.86-.1-1.24-.04-2.54-.06-3.9-.06-1.05,0-2.09.02-3.14.06-1.05.04-1.85.07-2.4.1v-.85c1.13,0,1.94-.2,2.42-.61.48-.4.72-1.17.72-2.3v-12.66c0-1.21-.22-2.1-.66-2.68-.43-.58-1.26-.87-2.49-.87v-.85c.93.08,1.83.12,2.7.12.99,0,1.91-.05,2.77-.14.86-.09,1.65-.23,2.38-.42v4.64c.35-.78.81-1.53,1.4-2.26.58-.73,1.28-1.32,2.09-1.79s1.72-.71,2.71-.71Z"/><path class="cls-1" d="M16.93,201.19c1.92,0,3.5.26,4.73.79,1.24.53,2.33,1.14,3.29,1.84.58.4,1.02.45,1.33.14.31-.31.52-1.04.63-2.2h1c-.06,1.02-.1,2.25-.13,3.69-.03,1.44-.04,3.35-.04,5.75h-1c-.2-1.18-.4-2.15-.59-2.9-.19-.75-.44-1.4-.74-1.94s-.72-1.06-1.24-1.57c-.84-.97-1.87-1.67-3.1-2.1-1.22-.43-2.52-.64-3.88-.64-1.48,0-2.79.34-3.93,1.03-1.13.69-2.09,1.66-2.86,2.92-.77,1.26-1.36,2.76-1.77,4.48-.41,1.72-.61,3.6-.61,5.65s.22,4,.66,5.71c.44,1.71,1.07,3.17,1.9,4.4.83,1.22,1.83,2.16,3.01,2.82,1.18.66,2.49.99,3.95.99,1.19,0,2.43-.22,3.71-.67,1.28-.44,2.3-1.12,3.05-2.04.81-.81,1.37-1.71,1.68-2.72.31-1.01.56-2.38.76-4.13h1c0,2.47.01,4.47.04,5.99.03,1.52.07,2.8.13,3.85h-1c-.12-1.16-.31-1.88-.59-2.18s-.73-.26-1.37.12c-1.08.7-2.22,1.31-3.42,1.83-1.21.52-2.76.79-4.65.79-2.88,0-5.39-.58-7.55-1.73-2.15-1.16-3.83-2.82-5.02-5-1.19-2.18-1.79-4.8-1.79-7.86s.62-5.65,1.85-7.91c1.24-2.26,2.93-4.02,5.08-5.28,2.15-1.26,4.64-1.9,7.46-1.9Z"/><path class="cls-1" d="M43.8,208.94c1.95,0,3.68.38,5.19,1.13s2.72,1.93,3.62,3.55c.9,1.61,1.35,3.72,1.35,6.33s-.45,4.71-1.35,6.31c-.9,1.6-2.11,2.77-3.62,3.51-1.51.74-3.24,1.11-5.19,1.11s-3.65-.37-5.19-1.11c-1.54-.74-2.76-1.91-3.64-3.51-.89-1.6-1.33-3.7-1.33-6.31s.44-4.72,1.33-6.33c.89-1.61,2.1-2.8,3.64-3.55,1.54-.75,3.27-1.13,5.19-1.13ZM43.8,209.74c-1.51,0-2.75.8-3.71,2.4-.96,1.6-1.44,4.2-1.44,7.8s.48,6.19,1.44,7.76c.96,1.57,2.19,2.36,3.71,2.36s2.71-.79,3.69-2.36c.97-1.57,1.46-4.16,1.46-7.76s-.49-6.2-1.46-7.8c-.97-1.6-2.2-2.4-3.69-2.4Z"/><path class="cls-1" d="M73.03,208.94c1.1,0,2.04.14,2.79.42s1.37.66,1.83,1.15c.52.51.89,1.19,1.09,2.04.2.85.31,1.92.31,3.21v10.81c0,1.13.23,1.9.7,2.3.47.4,1.25.61,2.36.61v.85c-.5-.03-1.26-.06-2.29-.1-1.03-.04-2.04-.06-3.03-.06s-1.96.02-2.9.06c-.94.04-1.67.07-2.16.1v-.85c.96,0,1.63-.2,2.03-.61.39-.4.59-1.17.59-2.3v-11.94c0-.78-.06-1.49-.17-2.12-.12-.63-.39-1.14-.81-1.53-.42-.39-1.08-.59-1.98-.59-1.02,0-1.93.28-2.73.85-.8.56-1.44,1.34-1.92,2.32-.48.98-.72,2.08-.72,3.29v9.72c0,1.13.2,1.9.61,2.3.41.4,1.08.61,2.01.61v.85c-.47-.03-1.16-.06-2.09-.1-.93-.04-1.89-.06-2.88-.06s-2.02.02-3.1.06c-1.08.04-1.88.07-2.4.1v-.85c1.13,0,1.94-.2,2.42-.61.48-.4.72-1.17.72-2.3v-12.66c0-1.21-.22-2.1-.66-2.68-.43-.58-1.26-.87-2.49-.87v-.85c.93.08,1.83.12,2.7.12.99,0,1.91-.05,2.77-.14.86-.09,1.65-.23,2.38-.42v4.4c.76-1.61,1.77-2.77,3.03-3.47,1.27-.7,2.6-1.05,3.99-1.05ZM86.16,208.94c1.11,0,2.04.14,2.79.42s1.37.66,1.83,1.15c.52.51.89,1.19,1.09,2.04.2.85.31,1.92.31,3.21v10.81c0,1.13.24,1.9.72,2.3.48.4,1.29.61,2.42.61v.85c-.49-.03-1.26-.06-2.31-.1-1.05-.04-2.08-.06-3.1-.06s-1.96.02-2.9.06c-.95.04-1.67.07-2.16.1v-.85c.96,0,1.64-.2,2.03-.61.39-.4.59-1.17.59-2.3v-11.94c0-.78-.06-1.49-.18-2.12-.12-.63-.39-1.14-.83-1.53-.43-.39-1.12-.59-2.05-.59-1.02,0-1.93.29-2.73.87s-1.44,1.36-1.92,2.34c-.48.98-.72,2.08-.72,3.29l-.17-3.35c.79-1.77,1.84-2.98,3.16-3.63,1.32-.65,2.7-.97,4.12-.97Z"/><path class="cls-1" d="M113.12,208.94c1.1,0,2.04.14,2.79.42.76.28,1.37.66,1.83,1.15.52.51.89,1.19,1.09,2.04.2.85.31,1.92.31,3.21v10.81c0,1.13.23,1.9.7,2.3.47.4,1.25.61,2.36.61v.85c-.5-.03-1.26-.06-2.29-.1-1.03-.04-2.04-.06-3.03-.06s-1.96.02-2.9.06c-.94.04-1.67.07-2.16.1v-.85c.96,0,1.63-.2,2.03-.61.39-.4.59-1.17.59-2.3v-11.94c0-.78-.06-1.49-.17-2.12-.12-.63-.39-1.14-.81-1.53-.42-.39-1.08-.59-1.98-.59-1.02,0-1.93.28-2.73.85-.8.56-1.44,1.34-1.92,2.32-.48.98-.72,2.08-.72,3.29v9.72c0,1.13.2,1.9.61,2.3.41.4,1.08.61,2.01.61v.85c-.47-.03-1.16-.06-2.09-.1-.93-.04-1.89-.06-2.88-.06s-2.02.02-3.1.06c-1.08.04-1.88.07-2.4.1v-.85c1.13,0,1.94-.2,2.42-.61.48-.4.72-1.17.72-2.3v-12.66c0-1.21-.22-2.1-.66-2.68-.43-.58-1.26-.87-2.49-.87v-.85c.93.08,1.83.12,2.7.12.99,0,1.91-.05,2.77-.14.86-.09,1.65-.23,2.38-.42v4.4c.76-1.61,1.77-2.77,3.03-3.47,1.27-.7,2.6-1.05,3.99-1.05ZM126.25,208.94c1.11,0,2.04.14,2.79.42s1.37.66,1.83,1.15c.52.51.89,1.19,1.09,2.04.2.85.31,1.92.31,3.21v10.81c0,1.13.24,1.9.72,2.3.48.4,1.29.61,2.42.61v.85c-.49-.03-1.26-.06-2.31-.1-1.05-.04-2.08-.06-3.1-.06s-1.96.02-2.9.06c-.95.04-1.67.07-2.16.1v-.85c.96,0,1.64-.2,2.03-.61.39-.4.59-1.17.59-2.3v-11.94c0-.78-.06-1.49-.18-2.12-.12-.63-.39-1.14-.83-1.53-.43-.39-1.12-.59-2.05-.59-1.02,0-1.93.29-2.73.87s-1.44,1.36-1.92,2.34c-.48.98-.72,2.08-.72,3.29l-.17-3.35c.79-1.77,1.84-2.98,3.16-3.63,1.32-.65,2.7-.97,4.12-.97Z"/><path class="cls-1" d="M149.16,208.94c2.56,0,4.57.71,6.02,2.14,1.45,1.43,2.18,3.68,2.18,6.78h-15.05l-.09-.77h10.51c.03-1.32-.09-2.53-.35-3.65-.26-1.12-.67-2.01-1.22-2.68-.55-.67-1.28-1.01-2.18-1.01-1.25,0-2.33.61-3.25,1.83-.92,1.22-1.48,3.18-1.68,5.87l.13.2c-.03.38-.06.79-.09,1.23-.03.44-.04.88-.04,1.31,0,1.86.31,3.42.92,4.68.61,1.27,1.41,2.21,2.4,2.84s1.99.95,3.01.95c.78,0,1.55-.11,2.29-.34.74-.23,1.45-.62,2.12-1.17.67-.55,1.26-1.31,1.79-2.28l.87.32c-.35.91-.89,1.82-1.61,2.7-.73.89-1.66,1.61-2.79,2.16-1.13.55-2.46.83-3.97.83-2.04,0-3.81-.42-5.32-1.27s-2.68-2.06-3.49-3.65c-.81-1.59-1.22-3.47-1.22-5.65,0-2.39.42-4.44,1.26-6.13.84-1.7,2.03-2.99,3.56-3.89,1.53-.9,3.29-1.35,5.3-1.35Z"/><path class="cls-1" d="M175.42,208.94c.84,0,1.56.16,2.16.48.59.32,1.05.73,1.35,1.23.31.5.46,1.06.46,1.67,0,.78-.25,1.45-.76,2-.51.55-1.18.83-2.03.83-.73,0-1.35-.2-1.86-.6-.51-.4-.76-.96-.76-1.65,0-.59.17-1.09.5-1.51.33-.42.72-.75,1.16-.99-.29-.21-.64-.31-1.05-.28-.78.03-1.51.26-2.18.71-.67.44-1.24,1.01-1.7,1.69-.47.68-.83,1.42-1.09,2.2-.26.78-.39,1.51-.39,2.18v9.28c0,1.32.39,2.2,1.18,2.64.78.44,1.88.67,3.27.67v.85c-.67-.03-1.62-.06-2.86-.1-1.24-.04-2.54-.06-3.9-.06-1.05,0-2.09.02-3.14.06-1.05.04-1.85.07-2.4.1v-.85c1.13,0,1.94-.2,2.42-.61.48-.4.72-1.17.72-2.3v-12.66c0-1.21-.22-2.1-.66-2.68-.43-.58-1.26-.87-2.49-.87v-.85c.93.08,1.83.12,2.7.12.99,0,1.91-.05,2.77-.14.86-.09,1.65-.23,2.38-.42v4.64c.35-.78.81-1.53,1.4-2.26.58-.73,1.28-1.32,2.09-1.79.81-.47,1.72-.71,2.71-.71Z"/><path class="cls-1" d="M192.48,208.94c.99,0,1.93.11,2.83.34s1.69.54,2.36.95c.7.4,1.23.89,1.59,1.45s.55,1.18.55,1.85c0,.81-.25,1.44-.74,1.9s-1.13.69-1.92.69-1.44-.2-1.96-.6c-.52-.4-.79-.98-.79-1.73,0-.7.22-1.27.66-1.71.44-.44.94-.73,1.53-.87-.26-.4-.72-.75-1.37-1.03-.66-.28-1.36-.42-2.12-.42s-1.53.19-2.25.56c-.71.38-1.35.96-1.9,1.73s-1,1.79-1.33,3.02c-.34,1.24-.5,2.73-.5,4.48,0,2.26.28,4.05.85,5.38.57,1.33,1.32,2.28,2.25,2.84.93.56,1.93.85,3.01.85.7,0,1.42-.12,2.16-.36.74-.24,1.45-.65,2.14-1.21s1.29-1.33,1.81-2.3l.83.28c-.32.89-.82,1.79-1.51,2.7s-1.58,1.67-2.68,2.26c-1.11.59-2.46.89-4.06.89-1.83,0-3.49-.42-4.97-1.25-1.48-.83-2.66-2.05-3.53-3.65-.87-1.6-1.31-3.55-1.31-5.87s.44-4.23,1.33-5.91c.89-1.68,2.12-2.98,3.69-3.89,1.57-.91,3.36-1.37,5.37-1.37Z"/><path class="cls-1" d="M211.67,209.06v17.5c0,1.13.24,1.9.72,2.3.48.4,1.29.61,2.42.61v.85c-.5-.03-1.26-.06-2.29-.1-1.03-.04-2.09-.06-3.16-.06s-2.1.02-3.16.06c-1.06.04-1.86.07-2.38.1v-.85c1.13,0,1.94-.2,2.42-.61.48-.4.72-1.17.72-2.3v-12.66c0-1.21-.22-2.1-.66-2.68-.43-.58-1.26-.87-2.49-.87v-.85c.93.08,1.83.12,2.7.12.99,0,1.91-.05,2.77-.14.86-.09,1.65-.23,2.38-.42ZM209.06,199.34c.9,0,1.66.26,2.27.79.61.52.92,1.18.92,1.96s-.31,1.43-.92,1.96c-.61.52-1.37.79-2.27.79s-1.66-.26-2.27-.79c-.61-.53-.92-1.18-.92-1.96s.31-1.43.92-1.96c.61-.53,1.37-.79,2.27-.79Z"/><path class="cls-1" d="M224.15,230.59c-1.22,0-2.27-.21-3.14-.64-.87-.43-1.53-1.02-1.96-1.78-.43-.75-.65-1.61-.65-2.58,0-1.18.29-2.14.87-2.89.58-.74,1.33-1.34,2.25-1.79s1.89-.84,2.92-1.15c1.03-.31,2.01-.6,2.92-.89s1.67-.61,2.27-.99c.6-.38.89-.87.89-1.49v-2.74c0-.97-.17-1.74-.5-2.32-.33-.58-.78-.99-1.35-1.23-.57-.24-1.24-.36-2.03-.36-.67,0-1.38.09-2.14.26-.76.18-1.35.52-1.79,1.03.64.16,1.17.48,1.59.95.42.47.63,1.06.63,1.75,0,.75-.27,1.35-.81,1.78s-1.21.64-2.03.64c-.9,0-1.57-.26-2.01-.79-.44-.53-.65-1.14-.65-1.84s.2-1.32.59-1.77c.39-.46.91-.89,1.55-1.29.7-.43,1.59-.79,2.68-1.09,1.09-.3,2.31-.44,3.64-.44,1.25,0,2.33.13,3.25.38.92.26,1.68.67,2.29,1.23.73.62,1.21,1.39,1.44,2.32.23.93.35,2.05.35,3.37v11.13c0,.67.09,1.15.28,1.43.19.28.5.42.94.42.29,0,.58-.07.85-.2.28-.13.6-.34.98-.61l.44.69c-.61.46-1.23.82-1.85,1.09-.63.27-1.42.4-2.38.4s-1.69-.13-2.27-.4c-.58-.27-1.01-.66-1.29-1.17-.28-.51-.41-1.14-.41-1.9-.76,1.13-1.66,1.99-2.71,2.58-1.05.59-2.27.89-3.66.89ZM226.24,228.66c.81,0,1.58-.21,2.29-.64.71-.43,1.37-1.07,1.98-1.93v-8.03c-.32.43-.79.8-1.4,1.11s-1.26.63-1.96.95c-.7.32-1.36.69-1.99,1.11-.62.42-1.14.95-1.55,1.59-.41.64-.61,1.47-.61,2.46,0,1.05.29,1.88.87,2.48.58.61,1.37.91,2.36.91Z"/><path class="cls-1" d="M248.71,198.69v27.87c0,1.13.24,1.9.72,2.3.48.4,1.29.61,2.42.61v.85c-.52-.03-1.3-.06-2.33-.1-1.03-.04-2.07-.06-3.12-.06s-2.1.02-3.16.06c-1.06.04-1.85.07-2.38.1v-.85c1.13,0,1.94-.2,2.42-.61.48-.4.72-1.17.72-2.3v-23.03c0-1.21-.22-2.1-.66-2.68-.44-.58-1.27-.87-2.49-.87v-.85c.93.08,1.83.12,2.71.12.96,0,1.88-.05,2.75-.14.87-.09,1.67-.23,2.4-.42Z"/><path class="cls-1" d="M24.34,250.49c-.12,1.02-.2,2.01-.24,2.97-.04.95-.07,1.69-.07,2.2s.01.99.04,1.45c.03.46.06.83.09,1.13h-1c-.2-1.72-.52-3.08-.94-4.07-.42-.99-1.05-1.7-1.88-2.12-.83-.42-1.98-.63-3.47-.63h-3.01c-.93,0-1.64.08-2.12.22-.48.15-.81.44-.98.89-.18.44-.26,1.14-.26,2.08v20.33c0,.91.09,1.6.26,2.06.17.46.5.76.98.91.48.15,1.18.22,2.12.22h2.83c1.66,0,2.97-.24,3.95-.73s1.72-1.28,2.23-2.38c.51-1.1.89-2.61,1.16-4.52h1c-.09.78-.13,1.8-.13,3.07,0,.54.02,1.32.07,2.34.04,1.02.12,2.07.24,3.15-1.48-.05-3.16-.09-5.02-.1-1.86-.01-3.52-.02-4.97-.02h-2.57c-1.05,0-2.17,0-3.38.02-1.21.01-2.43.03-3.67.04-1.24.01-2.42.03-3.56.06v-.81c.99-.05,1.73-.16,2.23-.32.49-.16.82-.48.98-.97s.24-1.21.24-2.18v-20c0-.99-.09-1.73-.26-2.2-.18-.47-.51-.79-1-.97-.5-.17-1.22-.28-2.18-.3v-.81c1.13.03,2.32.05,3.56.06,1.24.01,2.46.03,3.67.04,1.21.01,2.33.02,3.38.02h2.57c1.34,0,2.86,0,4.56-.02,1.7-.01,3.22-.05,4.56-.1ZM17.1,264.28v.81h-7.9v-.81h7.9ZM18.37,258.96c-.12,1.53-.17,2.7-.15,3.51.01.81.02,1.55.02,2.22s.01,1.41.04,2.22c.03.81.1,1.98.22,3.51h-1c-.15-.89-.33-1.74-.57-2.56-.23-.82-.65-1.49-1.24-2s-1.52-.77-2.77-.77v-.81c.93,0,1.67-.17,2.2-.52s.95-.81,1.24-1.37c.29-.56.5-1.15.63-1.75.13-.61.25-1.16.37-1.67h1Z"/><path class="cls-1" d="M38.08,258.23v.85c-.55,0-1,.12-1.35.36-.35.24-.38.58-.09,1.01l11.61,15.73c.43.62.85,1.08,1.24,1.39.39.31.85.52,1.37.63v.85c-.35-.03-.86-.06-1.55-.1-.68-.04-1.37-.06-2.07-.06-.96,0-1.96.02-3.01.06-1.05.04-1.82.07-2.31.1v-.85c.58,0,1.05-.13,1.4-.38.35-.25.36-.58.04-.99l-11.6-15.73c-.55-.73-1-1.23-1.33-1.51-.33-.28-.76-.45-1.29-.5v-.85c.38.03.93.06,1.66.1.73.04,1.44.06,2.14.06.96,0,1.94-.02,2.94-.06,1-.04,1.74-.07,2.2-.1ZM38.57,268.8c.09.32.2.67.35,1.05l-3.01,3.59c-.79.94-1.21,1.77-1.27,2.48-.06.71.2,1.26.78,1.63.58.38,1.38.6,2.4.68v.81c-.52-.03-1.12-.05-1.79-.06-.67-.01-1.32-.03-1.96-.04-.64-.01-1.19-.02-1.66-.02-.67,0-1.27,0-1.79.02-.52.01-1,.05-1.44.1v-.81c.58-.11,1.17-.38,1.77-.83.6-.44,1.3-1.14,2.12-2.08l5.5-6.53ZM49.86,258.23v.81c-.58.11-1.2.4-1.86.89-.65.48-1.33,1.17-2.03,2.06l-4.97,6.13c-.09-.35-.19-.69-.31-1.01l3.01-3.83c.67-.89,1.09-1.63,1.26-2.22.18-.59.07-1.06-.31-1.41s-1.09-.55-2.14-.61v-.81c.79.03,1.49.05,2.12.08s1.29.04,1.98.04,1.27-.01,1.79-.04,1-.05,1.44-.08Z"/><path class="cls-1" d="M63.83,257.67c.99,0,1.93.11,2.83.34s1.69.54,2.36.95c.7.4,1.23.89,1.59,1.45.36.56.55,1.18.55,1.85,0,.81-.25,1.44-.74,1.9s-1.13.69-1.92.69-1.44-.2-1.96-.6c-.52-.4-.79-.98-.79-1.73,0-.7.22-1.27.66-1.71.44-.44.94-.73,1.53-.87-.26-.4-.72-.75-1.37-1.03-.66-.28-1.36-.42-2.12-.42s-1.53.19-2.25.56c-.71.38-1.35.96-1.9,1.73-.55.78-1,1.79-1.33,3.02-.34,1.24-.5,2.73-.5,4.48,0,2.26.28,4.05.85,5.38.57,1.33,1.32,2.28,2.25,2.84.93.56,1.93.85,3.01.85.7,0,1.42-.12,2.16-.36.74-.24,1.45-.65,2.14-1.21.68-.56,1.29-1.33,1.81-2.3l.83.28c-.32.89-.82,1.79-1.51,2.7-.68.91-1.58,1.67-2.68,2.26-1.11.59-2.46.89-4.06.89-1.83,0-3.49-.42-4.97-1.25-1.48-.83-2.66-2.05-3.53-3.65-.87-1.6-1.31-3.55-1.31-5.87s.44-4.23,1.33-5.91c.89-1.68,2.12-2.98,3.69-3.89,1.57-.91,3.36-1.37,5.37-1.37Z"/><path class="cls-1" d="M85.99,257.67c2.56,0,4.57.71,6.02,2.14,1.45,1.43,2.18,3.68,2.18,6.78h-15.05l-.09-.77h10.51c.03-1.32-.09-2.53-.35-3.65-.26-1.12-.67-2.01-1.22-2.68-.55-.67-1.28-1.01-2.18-1.01-1.25,0-2.33.61-3.25,1.83-.92,1.22-1.48,3.18-1.68,5.87l.13.2c-.03.38-.06.79-.09,1.23-.03.44-.04.88-.04,1.31,0,1.86.31,3.42.92,4.68.61,1.27,1.41,2.21,2.4,2.84s1.99.95,3.01.95c.78,0,1.55-.11,2.29-.34.74-.23,1.45-.62,2.12-1.17.67-.55,1.26-1.31,1.79-2.28l.87.32c-.35.91-.89,1.82-1.61,2.7-.73.89-1.66,1.61-2.79,2.16-1.13.55-2.46.83-3.97.83-2.04,0-3.81-.42-5.32-1.27-1.51-.85-2.68-2.06-3.49-3.65-.81-1.59-1.22-3.47-1.22-5.65,0-2.39.42-4.44,1.26-6.13.84-1.7,2.03-2.99,3.56-3.89,1.53-.9,3.29-1.35,5.3-1.35Z"/><path class="cls-1" d="M105.88,247.42v27.87c0,1.13.24,1.9.72,2.3.48.4,1.29.61,2.42.61v.85c-.52-.03-1.3-.06-2.33-.1-1.03-.04-2.07-.06-3.12-.06s-2.1.02-3.16.06c-1.06.04-1.85.07-2.38.1v-.85c1.13,0,1.94-.2,2.42-.61.48-.4.72-1.17.72-2.3v-23.03c0-1.21-.22-2.1-.66-2.68-.44-.58-1.27-.87-2.49-.87v-.85c.93.08,1.83.12,2.71.12.96,0,1.88-.05,2.75-.14.87-.09,1.67-.23,2.4-.42Z"/><path class="cls-1" d="M119.88,247.42v27.87c0,1.13.24,1.9.72,2.3.48.4,1.29.61,2.42.61v.85c-.52-.03-1.3-.06-2.33-.1-1.03-.04-2.07-.06-3.12-.06s-2.1.02-3.16.06c-1.06.04-1.85.07-2.38.1v-.85c1.13,0,1.94-.2,2.42-.61.48-.4.72-1.17.72-2.3v-23.03c0-1.21-.22-2.1-.66-2.68-.44-.58-1.27-.87-2.49-.87v-.85c.93.08,1.83.12,2.71.12.96,0,1.88-.05,2.75-.14.87-.09,1.67-.23,2.4-.42Z"/><path class="cls-1" d="M136.59,257.67c2.56,0,4.57.71,6.02,2.14,1.45,1.43,2.18,3.68,2.18,6.78h-15.05l-.09-.77h10.51c.03-1.32-.09-2.53-.35-3.65-.26-1.12-.67-2.01-1.22-2.68-.55-.67-1.28-1.01-2.18-1.01-1.25,0-2.33.61-3.25,1.83-.92,1.22-1.48,3.18-1.68,5.87l.13.2c-.03.38-.06.79-.09,1.23-.03.44-.04.88-.04,1.31,0,1.86.31,3.42.92,4.68.61,1.27,1.41,2.21,2.4,2.84s1.99.95,3.01.95c.78,0,1.55-.11,2.29-.34.74-.23,1.45-.62,2.12-1.17.67-.55,1.26-1.31,1.79-2.28l.87.32c-.35.91-.89,1.82-1.61,2.7-.73.89-1.66,1.61-2.79,2.16-1.13.55-2.46.83-3.97.83-2.04,0-3.81-.42-5.32-1.27s-2.68-2.06-3.49-3.65c-.81-1.59-1.22-3.47-1.22-5.65,0-2.39.42-4.44,1.26-6.13.84-1.7,2.03-2.99,3.56-3.89,1.53-.9,3.29-1.35,5.3-1.35Z"/><path class="cls-1" d="M163.99,257.67c1.16,0,2.12.14,2.86.42.74.28,1.36.66,1.85,1.15.52.51.89,1.17,1.11,1.98.22.81.33,1.9.33,3.27v10.81c0,1.13.24,1.9.72,2.3.48.4,1.29.61,2.42.61v.85c-.5-.03-1.27-.06-2.31-.1-1.05-.04-2.08-.06-3.1-.06s-1.97.02-2.94.06c-.97.04-1.71.07-2.2.1v-.85c.99,0,1.69-.2,2.09-.61.41-.4.61-1.17.61-2.3v-11.94c0-.78-.07-1.49-.22-2.12s-.45-1.14-.92-1.53c-.47-.39-1.16-.59-2.09-.59-1.08,0-2.03.28-2.86.85-.83.56-1.48,1.34-1.96,2.32-.48.98-.72,2.08-.72,3.29v9.72c0,1.13.21,1.9.63,2.3.42.4,1.11.61,2.07.61v.85c-.47-.03-1.17-.06-2.12-.1-.95-.04-1.93-.06-2.94-.06s-2.02.02-3.1.06c-1.08.04-1.88.07-2.4.1v-.85c1.13,0,1.94-.2,2.42-.61.48-.4.72-1.17.72-2.3v-12.66c0-1.21-.22-2.1-.66-2.68-.43-.58-1.26-.87-2.49-.87v-.85c.93.08,1.83.12,2.7.12.99,0,1.91-.05,2.77-.14.86-.09,1.65-.23,2.38-.42v4.4c.76-1.67,1.8-2.84,3.12-3.51,1.32-.67,2.73-1.01,4.21-1.01Z"/><path class="cls-1" d="M187.29,257.67c.99,0,1.93.11,2.83.34s1.69.54,2.36.95c.7.4,1.23.89,1.59,1.45s.55,1.18.55,1.85c0,.81-.25,1.44-.74,1.9s-1.13.69-1.92.69-1.44-.2-1.96-.6c-.52-.4-.79-.98-.79-1.73,0-.7.22-1.27.66-1.71.44-.44.94-.73,1.53-.87-.26-.4-.72-.75-1.37-1.03-.66-.28-1.36-.42-2.12-.42s-1.53.19-2.25.56c-.71.38-1.35.96-1.9,1.73-.55.78-1,1.79-1.33,3.02-.34,1.24-.5,2.73-.5,4.48,0,2.26.28,4.05.85,5.38.57,1.33,1.32,2.28,2.25,2.84.93.56,1.93.85,3.01.85.7,0,1.42-.12,2.16-.36.74-.24,1.45-.65,2.14-1.21.68-.56,1.29-1.33,1.81-2.3l.83.28c-.32.89-.82,1.79-1.51,2.7-.68.91-1.58,1.67-2.68,2.26-1.11.59-2.46.89-4.06.89-1.83,0-3.49-.42-4.97-1.25-1.48-.83-2.66-2.05-3.53-3.65-.87-1.6-1.31-3.55-1.31-5.87s.44-4.23,1.33-5.91c.89-1.68,2.12-2.98,3.69-3.89,1.57-.91,3.36-1.37,5.37-1.37Z"/><path class="cls-1" d="M209.45,257.67c2.56,0,4.57.71,6.02,2.14,1.45,1.43,2.18,3.68,2.18,6.78h-15.05l-.09-.77h10.51c.03-1.32-.09-2.53-.35-3.65-.26-1.12-.67-2.01-1.22-2.68-.55-.67-1.28-1.01-2.18-1.01-1.25,0-2.33.61-3.25,1.83-.92,1.22-1.48,3.18-1.68,5.87l.13.2c-.03.38-.06.79-.09,1.23-.03.44-.04.88-.04,1.31,0,1.86.31,3.42.92,4.68.61,1.27,1.41,2.21,2.4,2.84s1.99.95,3.01.95c.78,0,1.55-.11,2.29-.34.74-.23,1.45-.62,2.12-1.17.67-.55,1.26-1.31,1.79-2.28l.87.32c-.35.91-.89,1.82-1.61,2.7-.73.89-1.66,1.61-2.79,2.16-1.13.55-2.46.83-3.97.83-2.04,0-3.81-.42-5.32-1.27-1.51-.85-2.68-2.06-3.49-3.65-.81-1.59-1.22-3.47-1.22-5.65,0-2.39.42-4.44,1.26-6.13.84-1.7,2.03-2.99,3.56-3.89,1.53-.9,3.29-1.35,5.3-1.35Z"/><path class="cls-1" d="M226.2,274.08c.87,0,1.61.26,2.2.79.6.53.89,1.19.89,2s-.3,1.43-.89,1.96c-.6.52-1.33.79-2.2.79s-1.61-.26-2.2-.79c-.6-.53-.89-1.18-.89-1.96s.3-1.47.89-2c.6-.52,1.33-.79,2.2-.79Z"/><path class="cls-1" d="M387.95,92.42h4.81c.79,0,1.45.12,1.96.35.98.45,1.46,1.29,1.46,2.5,0,.63-.13,1.15-.39,1.56-.26.4-.63.73-1.1.97.41.17.72.39.93.66.21.27.33.72.35,1.33l.05,1.42c.01.4.05.7.1.9.09.34.24.55.46.65v.24h-1.76c-.05-.09-.09-.21-.12-.35s-.05-.42-.07-.84l-.09-1.77c-.03-.69-.28-1.16-.75-1.39-.27-.13-.68-.19-1.25-.19h-3.17v4.54h-1.43v-10.59ZM392.61,97.27c.65,0,1.17-.13,1.55-.4.38-.27.57-.75.57-1.46,0-.75-.27-1.27-.8-1.54-.28-.14-.67-.22-1.14-.22h-3.41v3.62h3.22Z"/><path class="cls-1" d="M391.88,107.55c-5.51,0-10-4.49-10-10s4.49-10,10-10,10,4.49,10,10-4.49,10-10,10ZM391.88,88.85c-4.8,0-8.7,3.9-8.7,8.7s3.9,8.7,8.7,8.7,8.7-3.9,8.7-8.7-3.9-8.7-8.7-8.7Z"/></g></svg>