<?xml version="1.0" encoding="UTF-8"?><svg id="Laag_2" xmlns="http://www.w3.org/2000/svg" viewBox="0 0 657.72 63.29"><defs><style>.cls-1,.cls-2{stroke-width:0px;}.cls-2{fill:#1d1d1b;}</style></defs><g id="Laag_1-2"><path class="cls-1" d="M0,1.84h24.86l20.8,38.97-12.25,22.48L0,1.84ZM41.7,1.84h25.3l-12.61,23.45L41.7,1.84Z"/><path class="cls-1" d="M72.2,1.84h21.86v59.95h-21.86V1.84ZM110.64,17.36v27.5l-13.58-13.75,13.58-13.75ZM104.38,1.84h23.71v24.16L104.38,1.84ZM129.06,36.75v25.04h-23.71l23.71-25.04Z"/><path class="cls-1" d="M139.56,34.64l25.04,27.15h-25.04v-27.15ZM186.37,61.79h-4.85l-38.52-41.87c-1.85-2.03-3-4.76-3-7.67,0-6.26,4.06-10.49,11.11-10.49h4.85l38.52,41.87c1.85,2.03,3,4.76,3,7.67,0,6.26-4.05,10.49-11.11,10.49ZM196.68,1.84v25.3L172.97,1.84h23.71Z"/><path class="cls-1" d="M207.97,1.84h21.86v59.95h-21.86V1.84ZM246.4,38.25V1.67c16.13,0,24.68,5.82,24.68,18.25s-8.55,18.34-24.68,18.34Z"/><path class="cls-1" d="M277.17,1.84h21.86v59.95h-21.86V1.84ZM315.61,17.36v27.5l-13.58-13.75,13.58-13.75ZM309.35,1.84h23.71v24.16l-23.71-24.16ZM334.03,36.75v25.04h-23.71l23.71-25.04Z"/><path class="cls-1" d="M346.29,1.84h21.86v59.95h-21.86V1.84ZM370.62,32.08h14.11V1.58c16.22,0,25.3,3.7,25.3,16.57,0,9.96-6.7,15.25-16.93,17.1l21.16,26.54h-27.06l-16.57-29.71Z"/><path class="cls-1" d="M459.95,2.11c1.63,0,2.97.22,4.02.66,1.05.44,1.98.96,2.8,1.55.49.34.87.38,1.13.12.26-.26.44-.88.54-1.86h.85c-.05.84-.09,1.86-.11,3.07s-.04,2.79-.04,4.77h-.85c-.17-.98-.33-1.75-.48-2.33-.15-.58-.33-1.07-.54-1.48-.21-.41-.49-.82-.83-1.23-.77-.93-1.73-1.61-2.89-2.03-1.16-.42-2.38-.63-3.67-.63-1.21,0-2.3.28-3.28.83s-1.82,1.36-2.52,2.4c-.7,1.04-1.25,2.3-1.63,3.78s-.57,3.13-.57,4.97.21,3.59.63,5.06c.42,1.46,1.01,2.7,1.76,3.7.75,1,1.64,1.76,2.67,2.27s2.13.77,3.32.77c1.11,0,2.27-.2,3.48-.61,1.21-.41,2.16-1.07,2.85-1.98.54-.66.92-1.37,1.13-2.15.21-.77.4-1.85.57-3.24h.85c0,2.07.01,3.73.04,4.99s.06,2.32.11,3.18h-.85c-.1-.98-.27-1.59-.5-1.84-.24-.25-.62-.22-1.17.1-.91.59-1.88,1.11-2.91,1.55-1.03.44-2.34.66-3.95.66-2.35,0-4.4-.49-6.17-1.46-1.77-.98-3.14-2.38-4.11-4.22-.98-1.84-1.46-4.05-1.46-6.64s.51-4.77,1.52-6.68c1.01-1.91,2.4-3.39,4.17-4.46,1.77-1.07,3.8-1.6,6.09-1.6Z"/><path class="cls-1" d="M482.77,8.69c1.58,0,3,.32,4.26.95,1.26.64,2.27,1.63,3.02,3,.75,1.36,1.13,3.13,1.13,5.31s-.38,3.95-1.13,5.3c-.75,1.35-1.76,2.35-3.02,2.98-1.26.63-2.68.95-4.26.95s-2.97-.32-4.24-.95c-1.27-.64-2.28-1.63-3.04-2.98-.75-1.35-1.13-3.12-1.13-5.3s.38-3.95,1.13-5.31,1.77-2.36,3.04-3c1.27-.63,2.69-.95,4.24-.95ZM482.77,9.37c-1.41,0-2.56.67-3.46,2.01-.9,1.34-1.35,3.53-1.35,6.57s.45,5.23,1.35,6.56c.9,1.33,2.06,1.99,3.46,1.99s2.56-.66,3.46-1.99c.9-1.33,1.35-3.51,1.35-6.56s-.45-5.23-1.35-6.57c-.9-1.34-2.06-2.01-3.46-2.01Z"/><path class="cls-1" d="M507.15,8.69c.86,0,1.62.11,2.26.34.64.23,1.17.55,1.59.95.47.45.79,1.04.96,1.77.17.73.26,1.62.26,2.69v9.09c0,.95.22,1.6.65,1.94.43.34,1.15.51,2.17.51v.72c-.42-.02-1.06-.05-1.93-.09-.86-.03-1.7-.05-2.52-.05s-1.61.02-2.39.05-1.37.06-1.76.09v-.72c.89,0,1.52-.17,1.89-.51.37-.34.56-.99.56-1.94v-9.84c0-.7-.05-1.35-.15-1.94s-.35-1.07-.74-1.43-1.04-.55-1.93-.55c-.96,0-1.82.27-2.57.82-.75.54-1.35,1.29-1.78,2.23-.43.94-.65,1.99-.65,3.15v7.56c0,.95.19,1.6.56,1.94.37.34,1,.51,1.89.51v.72c-.4-.02-.98-.05-1.76-.09s-1.57-.05-2.39-.05-1.66.02-2.52.05c-.87.03-1.51.06-1.93.09v-.72c1.01,0,1.73-.17,2.17-.51.43-.34.65-.99.65-1.94v-10.66c0-1.02-.2-1.78-.59-2.27-.4-.49-1.14-.73-2.22-.73v-.72c.79.07,1.56.1,2.3.1s1.4-.04,2.06-.12c.65-.08,1.25-.2,1.8-.36v4.02c.64-1.48,1.52-2.53,2.63-3.17,1.11-.63,2.26-.95,3.45-.95ZM518.3,8.69c.86,0,1.62.11,2.26.34.64.23,1.17.55,1.59.95.47.45.79,1.04.96,1.77.17.73.26,1.62.26,2.69v9.09c0,.95.22,1.6.65,1.94.43.34,1.15.51,2.17.51v.72c-.42-.02-1.06-.05-1.93-.09-.87-.03-1.7-.05-2.52-.05s-1.61.02-2.39.05-1.37.06-1.76.09v-.72c.89,0,1.52-.17,1.89-.51.37-.34.56-.99.56-1.94v-9.84c0-.7-.05-1.35-.15-1.94-.1-.59-.35-1.07-.74-1.43-.39-.36-1.04-.55-1.93-.55-.96,0-1.82.27-2.58.82s-1.35,1.28-1.78,2.21c-.43.93-.65,1.98-.65,3.13l-.11-3.17c.67-1.57,1.57-2.64,2.71-3.22,1.14-.58,2.3-.87,3.48-.87Z"/><path class="cls-1" d="M540.97,8.69c.86,0,1.62.11,2.26.34.64.23,1.17.55,1.59.95.47.45.79,1.04.96,1.77.17.73.26,1.62.26,2.69v9.09c0,.95.22,1.6.65,1.94.43.34,1.15.51,2.17.51v.72c-.42-.02-1.06-.05-1.93-.09-.86-.03-1.7-.05-2.52-.05s-1.61.02-2.39.05-1.37.06-1.76.09v-.72c.89,0,1.52-.17,1.89-.51.37-.34.56-.99.56-1.94v-9.84c0-.7-.05-1.35-.15-1.94s-.35-1.07-.74-1.43-1.04-.55-1.93-.55c-.96,0-1.82.27-2.57.82-.75.54-1.35,1.29-1.78,2.23-.43.94-.65,1.99-.65,3.15v7.56c0,.95.19,1.6.56,1.94.37.34,1,.51,1.89.51v.72c-.4-.02-.98-.05-1.76-.09s-1.57-.05-2.39-.05-1.66.02-2.52.05c-.87.03-1.51.06-1.93.09v-.72c1.01,0,1.73-.17,2.17-.51.43-.34.65-.99.65-1.94v-10.66c0-1.02-.2-1.78-.59-2.27-.4-.49-1.14-.73-2.22-.73v-.72c.79.07,1.56.1,2.3.1s1.4-.04,2.06-.12c.65-.08,1.25-.2,1.8-.36v4.02c.64-1.48,1.52-2.53,2.63-3.17,1.11-.63,2.26-.95,3.45-.95ZM552.13,8.69c.86,0,1.62.11,2.26.34.64.23,1.17.55,1.59.95.47.45.79,1.04.96,1.77.17.73.26,1.62.26,2.69v9.09c0,.95.22,1.6.65,1.94.43.34,1.15.51,2.17.51v.72c-.42-.02-1.06-.05-1.93-.09-.87-.03-1.7-.05-2.52-.05s-1.61.02-2.39.05-1.37.06-1.76.09v-.72c.89,0,1.52-.17,1.89-.51.37-.34.56-.99.56-1.94v-9.84c0-.7-.05-1.35-.15-1.94-.1-.59-.35-1.07-.74-1.43-.39-.36-1.04-.55-1.93-.55-.96,0-1.82.27-2.58.82s-1.35,1.28-1.78,2.21c-.43.93-.65,1.98-.65,3.13l-.11-3.17c.67-1.57,1.57-2.64,2.71-3.22,1.14-.58,2.3-.87,3.48-.87Z"/><path class="cls-1" d="M571.58,8.69c2.17,0,3.87.61,5.09,1.82,1.22,1.22,1.83,3.11,1.83,5.67h-13.08l-.04-.65h9.56c.05-1.11-.05-2.14-.3-3.08-.25-.94-.64-1.7-1.17-2.27-.53-.57-1.22-.85-2.06-.85-1.14,0-2.14.52-3.02,1.57-.88,1.04-1.4,2.7-1.57,4.97l.11.14c-.05.34-.09.72-.11,1.12-.03.41-.04.82-.04,1.23,0,1.54.27,2.87.82,3.99.54,1.11,1.25,1.96,2.13,2.54.88.58,1.78.87,2.72.87.74,0,1.44-.11,2.11-.32.67-.22,1.28-.57,1.85-1.07s1.06-1.17,1.48-2.01l.74.27c-.27.75-.72,1.48-1.33,2.18-.62.7-1.4,1.28-2.33,1.72-.94.44-2.03.66-3.26.66-1.78,0-3.3-.37-4.58-1.12-1.27-.75-2.25-1.79-2.93-3.12-.68-1.33-1.02-2.86-1.02-4.58,0-2,.34-3.72,1.04-5.16.69-1.44,1.67-2.55,2.93-3.34,1.26-.78,2.73-1.17,4.41-1.17Z"/><path class="cls-1" d="M593.77,8.69c.67,0,1.25.13,1.76.37.51.25.9.57,1.19.97s.43.85.43,1.35c0,.57-.19,1.07-.57,1.5s-.9.65-1.54.65c-.52,0-.98-.15-1.37-.46-.4-.31-.59-.74-.59-1.31,0-.43.13-.8.39-1.11.26-.31.55-.55.87-.73-.17-.23-.43-.34-.78-.34-.77,0-1.47.21-2.11.63-.64.42-1.19.96-1.63,1.62-.44.66-.79,1.36-1.04,2.1s-.37,1.42-.37,2.06v7.22c0,1.11.35,1.86,1.06,2.23.7.37,1.66.56,2.87.56v.72c-.57-.02-1.37-.05-2.41-.09-1.04-.03-2.14-.05-3.3-.05-.84,0-1.67.02-2.5.05-.83.03-1.45.06-1.87.09v-.72c1.01,0,1.73-.17,2.17-.51.43-.34.65-.99.65-1.94v-10.66c0-1.02-.2-1.78-.59-2.27-.4-.49-1.14-.73-2.22-.73v-.72c.79.07,1.56.1,2.3.1s1.4-.04,2.06-.12c.65-.08,1.25-.2,1.8-.36v4.26c.27-.66.66-1.32,1.17-1.99.51-.67,1.12-1.23,1.83-1.69s1.51-.68,2.37-.68Z"/><path class="cls-1" d="M608.18,8.69c.79,0,1.56.09,2.3.27.74.18,1.41.45,2,.82.57.34,1,.73,1.3,1.18.3.44.44.93.44,1.45,0,.61-.19,1.08-.56,1.41-.37.33-.84.49-1.41.49s-1.02-.15-1.43-.44c-.41-.29-.61-.72-.61-1.26s.15-.94.46-1.26c.31-.32.67-.52,1.09-.61-.25-.41-.69-.75-1.32-1.02-.63-.27-1.3-.41-2.02-.41-.62,0-1.24.14-1.85.41-.62.27-1.19.72-1.7,1.35-.52.63-.94,1.48-1.26,2.55-.32,1.08-.48,2.42-.48,4.04,0,2,.25,3.59.74,4.77.49,1.18,1.14,2.03,1.95,2.54.8.51,1.69.77,2.65.77.64,0,1.3-.11,1.96-.34.67-.23,1.3-.6,1.89-1.11.59-.51,1.1-1.2,1.52-2.06l.7.24c-.25.73-.65,1.46-1.22,2.2s-1.31,1.35-2.22,1.82c-.91.48-2.04.72-3.37.72-1.53,0-2.91-.36-4.15-1.09-1.23-.73-2.22-1.76-2.94-3.12-.73-1.35-1.09-2.96-1.09-4.82s.36-3.5,1.09-4.92c.73-1.42,1.75-2.53,3.06-3.34,1.31-.81,2.8-1.21,4.48-1.21Z"/><path class="cls-1" d="M624,8.79v14.75c0,.95.22,1.6.65,1.94.43.34,1.15.51,2.17.51v.72c-.42-.02-1.06-.05-1.91-.09s-1.71-.05-2.58-.05-1.69.02-2.56.05c-.87.03-1.51.06-1.93.09v-.72c1.01,0,1.73-.17,2.17-.51.43-.34.65-.99.65-1.94v-10.66c0-1.02-.2-1.78-.59-2.27-.4-.49-1.14-.73-2.22-.73v-.72c.79.07,1.56.1,2.3.1s1.4-.04,2.06-.12c.65-.08,1.25-.2,1.8-.36ZM622.08.65c.64,0,1.2.22,1.67.65.47.43.7.94.7,1.53s-.24,1.1-.7,1.53-1.02.65-1.67.65-1.2-.22-1.67-.65-.7-.94-.7-1.53.24-1.1.7-1.53c.47-.43,1.02-.65,1.67-.65Z"/><path class="cls-1" d="M634.9,26.94c-1.01,0-1.89-.18-2.63-.53-.74-.35-1.3-.85-1.69-1.48s-.57-1.37-.57-2.21c0-1,.25-1.82.76-2.45.51-.64,1.15-1.15,1.94-1.53.79-.39,1.62-.71,2.5-.97s1.71-.51,2.5-.75c.79-.24,1.44-.52,1.94-.83s.76-.74.76-1.26v-2.11c0-.95-.15-1.68-.46-2.18-.31-.5-.72-.83-1.24-1-.52-.17-1.1-.26-1.74-.26s-1.28.08-1.98.24c-.7.16-1.27.49-1.69.99.47.09.88.32,1.22.68.35.36.52.83.52,1.4s-.2,1.02-.59,1.35c-.4.33-.9.49-1.52.49-.72,0-1.24-.21-1.57-.63-.33-.42-.5-.89-.5-1.41,0-.59.16-1.07.48-1.43s.73-.7,1.22-1.02c.57-.36,1.3-.68,2.2-.94.9-.26,1.92-.39,3.06-.39,1.01,0,1.88.11,2.59.32.72.22,1.31.53,1.78.94.64.54,1.06,1.21,1.26,1.99.2.78.3,1.72.3,2.81v9.47c0,.57.09.98.28,1.23s.47.37.87.37c.27,0,.53-.06.78-.17s.54-.3.89-.54l.41.58c-.52.36-1.01.66-1.48.9s-1.1.36-1.89.36c-.72,0-1.31-.11-1.78-.34-.47-.23-.82-.56-1.06-1.01-.24-.44-.35-1-.35-1.69-.67,1.02-1.46,1.78-2.39,2.28-.93.5-1.97.75-3.13.75ZM636.23,25.58c.82,0,1.57-.22,2.28-.65.7-.43,1.34-1.08,1.91-1.94v-6.68c-.3.39-.73.71-1.3.97-.57.26-1.19.52-1.85.78-.67.26-1.3.57-1.91.92-.61.35-1.11.81-1.5,1.38-.4.57-.59,1.31-.59,2.21s.26,1.63.8,2.18c.53.55,1.25.82,2.17.82Z"/><path class="cls-1" d="M654.9,0v23.54c0,.95.22,1.6.65,1.94.43.34,1.15.51,2.17.51v.72c-.42-.02-1.06-.05-1.91-.09-.85-.03-1.71-.05-2.57-.05s-1.69.02-2.56.05c-.86.03-1.51.06-1.93.09v-.72c1.01,0,1.73-.17,2.17-.51.43-.34.65-.99.65-1.94V4.09c0-1.02-.2-1.78-.59-2.26-.4-.49-1.14-.73-2.22-.73V.37c.79.07,1.56.1,2.3.1s1.4-.04,2.06-.12,1.25-.2,1.8-.36Z"/><path class="cls-1" d="M466.25,37.65c-.1.8-.17,1.57-.2,2.32s-.06,1.32-.06,1.7c0,.41.01.8.04,1.17.02.37.05.69.07.94h-.85c-.15-1.34-.36-2.4-.63-3.18-.27-.78-.74-1.34-1.39-1.67-.65-.33-1.64-.49-2.95-.49h-3.08c-.84,0-1.48.06-1.91.19-.43.12-.72.39-.87.78-.15.4-.22,1.02-.22,1.86v16.89c0,.82.07,1.43.22,1.84.15.41.44.68.87.8s1.07.19,1.91.19h2.71c1.56,0,2.73-.19,3.54-.58.8-.39,1.38-1.02,1.74-1.89.36-.87.62-2.06.8-3.56h.85c-.07.61-.11,1.43-.11,2.45,0,.43.02,1.05.06,1.86.04.81.11,1.64.2,2.5-1.26-.05-2.68-.07-4.26-.09-1.58-.01-2.99-.02-4.22-.02h-2.09c-.85,0-1.77,0-2.76.02-.99.01-1.99.02-3,.03-1.01.01-1.98.03-2.89.05v-.68c.84-.05,1.48-.14,1.91-.27s.72-.41.87-.82c.15-.41.22-1.02.22-1.84v-16.89c0-.84-.07-1.46-.22-1.86-.15-.4-.44-.67-.87-.82s-1.07-.23-1.91-.26v-.68c.91.02,1.88.04,2.89.05,1.01.01,2.01.02,3,.03.99.01,1.91.02,2.76.02h2.09c1.14,0,2.43,0,3.87-.02,1.45-.01,2.74-.04,3.87-.09ZM459.87,49.3v.68h-6.78v-.68h6.78ZM460.95,44.81c-.1,1.29-.14,2.28-.13,2.96.01.68.02,1.31.02,1.87s.01,1.19.04,1.87c.02.68.09,1.67.19,2.96h-.85c-.1-.73-.22-1.44-.35-2.13-.14-.69-.43-1.26-.89-1.7-.46-.44-1.23-.66-2.32-.66v-.68c.82,0,1.44-.15,1.87-.46.43-.31.75-.7.94-1.17.2-.48.33-.97.41-1.48.07-.51.15-.97.22-1.38h.85Z"/><path class="cls-1" d="M478.55,52.88c.1.3.21.6.33.92l-3.07,3.68c-.64.77-.98,1.42-1.02,1.94s.19.91.69,1.17,1.17.43,2.04.49v.68c-.42-.02-.89-.04-1.41-.05-.52-.01-1.02-.02-1.5-.03-.48-.01-.92-.02-1.32-.02-.57,0-1.08,0-1.54.02-.46.01-.88.04-1.28.09v-.68c.47-.05.96-.24,1.46-.6.51-.35,1.11-.95,1.8-1.79l4.82-5.83ZM477.55,44.23v.72c-.47,0-.87.1-1.19.31-.32.2-.36.49-.11.85l9.89,13.25c.42.57.79.97,1.11,1.21.32.24.72.4,1.19.49v.72c-.25-.02-.62-.05-1.13-.09-.51-.03-1.01-.05-1.5-.05-.77,0-1.59.02-2.46.05-.88.03-1.51.06-1.91.09v-.72c.49,0,.9-.11,1.22-.32.32-.22.34-.49.07-.83l-9.89-13.25c-.49-.66-.89-1.1-1.19-1.31-.3-.22-.67-.35-1.11-.39v-.72c.25.02.63.05,1.15.09s1.01.05,1.48.05c.79,0,1.62-.02,2.48-.05.87-.03,1.49-.06,1.89-.09ZM487.7,44.23v.68c-.47.05-.98.27-1.54.66-.56.4-1.13.97-1.72,1.72l-4.26,5.42c-.1-.29-.2-.59-.3-.89l2.89-3.71c.54-.7.89-1.28,1.04-1.74.15-.45.07-.8-.24-1.04-.31-.24-.91-.38-1.8-.43v-.68c.64.02,1.18.05,1.61.07.43.02.93.03,1.5.03s1.08-.01,1.54-.03c.46-.02.88-.05,1.28-.07Z"/><path class="cls-1" d="M499.55,43.75c.79,0,1.56.09,2.3.27.74.18,1.41.45,2,.82.57.34,1,.73,1.3,1.18.3.44.44.93.44,1.45,0,.61-.19,1.08-.56,1.41-.37.33-.84.49-1.41.49s-1.02-.15-1.43-.44c-.41-.29-.61-.72-.61-1.26s.15-.94.46-1.26c.31-.32.67-.52,1.09-.61-.25-.41-.69-.75-1.32-1.02-.63-.27-1.3-.41-2.02-.41-.62,0-1.24.14-1.85.41-.62.27-1.19.72-1.7,1.35-.52.63-.94,1.48-1.26,2.55-.32,1.08-.48,2.42-.48,4.04,0,2,.25,3.59.74,4.77.49,1.18,1.14,2.03,1.95,2.54.8.51,1.69.77,2.65.77.64,0,1.3-.11,1.96-.34.67-.23,1.3-.6,1.89-1.11.59-.51,1.1-1.2,1.52-2.06l.7.24c-.25.73-.65,1.46-1.22,2.2s-1.31,1.35-2.22,1.82c-.91.48-2.04.72-3.37.72-1.53,0-2.91-.36-4.15-1.09-1.23-.73-2.22-1.76-2.94-3.12-.73-1.35-1.09-2.96-1.09-4.82s.36-3.5,1.09-4.92c.73-1.42,1.75-2.53,3.06-3.34,1.31-.81,2.8-1.21,4.48-1.21Z"/><path class="cls-1" d="M518.23,43.75c2.17,0,3.87.61,5.09,1.82,1.22,1.22,1.83,3.11,1.83,5.67h-13.08l-.04-.65h9.56c.05-1.11-.05-2.14-.3-3.08-.25-.94-.64-1.7-1.17-2.27-.53-.57-1.22-.85-2.06-.85-1.14,0-2.14.52-3.02,1.57-.88,1.04-1.4,2.7-1.57,4.97l.11.14c-.05.34-.09.72-.11,1.12-.03.41-.04.82-.04,1.23,0,1.54.27,2.87.82,3.99.54,1.11,1.25,1.96,2.13,2.54.88.58,1.78.87,2.72.87.74,0,1.44-.11,2.11-.32.67-.22,1.28-.57,1.85-1.07s1.06-1.17,1.48-2.01l.74.27c-.27.75-.72,1.48-1.33,2.18-.62.7-1.4,1.28-2.33,1.72-.94.44-2.03.66-3.26.66-1.78,0-3.3-.37-4.58-1.12-1.27-.75-2.25-1.79-2.93-3.12-.68-1.33-1.02-2.86-1.02-4.58,0-2,.34-3.72,1.04-5.16.69-1.44,1.67-2.55,2.93-3.34,1.26-.78,2.73-1.17,4.41-1.17Z"/><path class="cls-1" d="M534.79,35.06v23.54c0,.95.22,1.6.65,1.94.43.34,1.15.51,2.17.51v.72c-.42-.02-1.06-.05-1.91-.09-.85-.03-1.71-.05-2.57-.05s-1.69.02-2.56.05c-.86.03-1.51.06-1.93.09v-.72c1.01,0,1.73-.17,2.17-.51.43-.34.65-.99.65-1.94v-19.45c0-1.02-.2-1.78-.59-2.26-.4-.49-1.14-.73-2.22-.73v-.72c.79.07,1.56.1,2.3.1s1.4-.04,2.06-.12,1.25-.2,1.8-.36Z"/><path class="cls-1" d="M546.31,35.06v23.54c0,.95.22,1.6.65,1.94.43.34,1.15.51,2.17.51v.72c-.42-.02-1.06-.05-1.91-.09-.85-.03-1.71-.05-2.57-.05s-1.69.02-2.56.05c-.86.03-1.51.06-1.93.09v-.72c1.01,0,1.73-.17,2.17-.51.43-.34.65-.99.65-1.94v-19.45c0-1.02-.2-1.78-.59-2.26-.4-.49-1.14-.73-2.22-.73v-.72c.79.07,1.56.1,2.3.1s1.4-.04,2.06-.12,1.25-.2,1.8-.36Z"/><path class="cls-1" d="M560.57,43.75c2.17,0,3.87.61,5.09,1.82,1.22,1.22,1.83,3.11,1.83,5.67h-13.08l-.04-.65h9.56c.05-1.11-.05-2.14-.3-3.08-.25-.94-.64-1.7-1.17-2.27-.53-.57-1.22-.85-2.06-.85-1.14,0-2.14.52-3.02,1.57-.88,1.04-1.4,2.7-1.57,4.97l.11.14c-.05.34-.09.72-.11,1.12-.03.41-.04.82-.04,1.23,0,1.54.27,2.87.82,3.99.54,1.11,1.25,1.96,2.13,2.54.88.58,1.78.87,2.72.87.74,0,1.44-.11,2.11-.32.67-.22,1.28-.57,1.85-1.07s1.06-1.17,1.48-2.01l.74.27c-.27.75-.72,1.48-1.33,2.18-.62.7-1.4,1.28-2.33,1.72-.94.44-2.03.66-3.26.66-1.78,0-3.3-.37-4.58-1.12-1.27-.75-2.25-1.79-2.93-3.12-.68-1.33-1.02-2.86-1.02-4.58,0-2,.34-3.72,1.04-5.16.69-1.44,1.67-2.55,2.93-3.34,1.26-.78,2.73-1.17,4.41-1.17Z"/><path class="cls-1" d="M583.69,43.75c.94,0,1.72.11,2.35.34.63.23,1.15.55,1.57.95.47.45.8,1.02,1,1.7.2.68.3,1.6.3,2.76v9.09c0,.95.22,1.6.65,1.94.43.34,1.15.51,2.17.51v.72c-.42-.02-1.06-.05-1.93-.09-.86-.03-1.7-.05-2.52-.05s-1.61.02-2.39.05-1.36.06-1.76.09v-.72c.89,0,1.52-.17,1.89-.51.37-.34.56-.99.56-1.94v-9.84c0-.7-.06-1.35-.19-1.94s-.4-1.07-.83-1.43c-.43-.36-1.09-.55-1.98-.55-1.04,0-1.94.27-2.72.82-.78.54-1.38,1.29-1.82,2.23-.43.94-.65,1.99-.65,3.15v7.56c0,.95.19,1.6.56,1.94.37.34,1,.51,1.89.51v.72c-.4-.02-.98-.05-1.76-.09s-1.57-.05-2.39-.05-1.66.02-2.52.05c-.87.03-1.51.06-1.93.09v-.72c1.01,0,1.73-.17,2.17-.51.43-.34.65-.99.65-1.94v-10.66c0-1.02-.2-1.78-.59-2.27-.4-.49-1.14-.73-2.22-.73v-.72c.79.07,1.56.1,2.3.1s1.4-.04,2.06-.12c.65-.08,1.25-.2,1.8-.36v4.02c.64-1.54,1.54-2.62,2.69-3.22,1.15-.6,2.35-.9,3.61-.9Z"/><path class="cls-1" d="M603.55,43.75c.79,0,1.56.09,2.3.27.74.18,1.41.45,2,.82.57.34,1,.73,1.3,1.18.3.44.44.93.44,1.45,0,.61-.19,1.08-.56,1.41-.37.33-.84.49-1.41.49s-1.02-.15-1.43-.44c-.41-.29-.61-.72-.61-1.26s.15-.94.46-1.26c.31-.32.67-.52,1.09-.61-.25-.41-.69-.75-1.32-1.02-.63-.27-1.3-.41-2.02-.41-.62,0-1.24.14-1.85.41-.62.27-1.19.72-1.7,1.35-.52.63-.94,1.48-1.26,2.55-.32,1.08-.48,2.42-.48,4.04,0,2,.25,3.59.74,4.77.49,1.18,1.14,2.03,1.95,2.54.8.51,1.69.77,2.65.77.64,0,1.3-.11,1.96-.34.67-.23,1.3-.6,1.89-1.11.59-.51,1.1-1.2,1.52-2.06l.7.24c-.25.73-.65,1.46-1.22,2.2s-1.31,1.35-2.22,1.82c-.91.48-2.04.72-3.37.72-1.53,0-2.91-.36-4.15-1.09-1.23-.73-2.22-1.76-2.94-3.12-.73-1.35-1.09-2.96-1.09-4.82s.36-3.5,1.09-4.92c.73-1.42,1.75-2.53,3.06-3.34,1.31-.81,2.8-1.21,4.48-1.21Z"/><path class="cls-1" d="M622.23,43.75c2.17,0,3.87.61,5.09,1.82,1.22,1.22,1.83,3.11,1.83,5.67h-13.08l-.04-.65h9.56c.05-1.11-.05-2.14-.3-3.08-.25-.94-.64-1.7-1.17-2.27-.53-.57-1.22-.85-2.06-.85-1.14,0-2.14.52-3.02,1.57-.88,1.04-1.4,2.7-1.57,4.97l.11.14c-.05.34-.09.72-.11,1.12-.03.41-.04.82-.04,1.23,0,1.54.27,2.87.82,3.99.54,1.11,1.25,1.96,2.13,2.54.88.58,1.78.87,2.72.87.74,0,1.44-.11,2.11-.32.67-.22,1.28-.57,1.85-1.07s1.06-1.17,1.48-2.01l.74.27c-.27.75-.72,1.48-1.33,2.18-.62.7-1.4,1.28-2.33,1.72-.94.44-2.03.66-3.26.66-1.78,0-3.3-.37-4.58-1.12-1.27-.75-2.25-1.79-2.93-3.12-.68-1.33-1.02-2.86-1.02-4.58,0-2,.34-3.72,1.04-5.16.69-1.44,1.67-2.55,2.93-3.34,1.26-.78,2.73-1.17,4.41-1.17Z"/><path class="cls-1" d="M636.49,57.89c.64,0,1.2.22,1.67.65.47.43.7.94.7,1.53s-.24,1.1-.7,1.53c-.47.43-1.03.65-1.67.65s-1.2-.22-1.67-.65-.7-.94-.7-1.53.23-1.1.7-1.53c.47-.43,1.02-.65,1.67-.65Z"/><path class="cls-2" d="M423.75,52.65h2.89c.48,0,.87.07,1.18.21.59.27.88.77.88,1.5,0,.38-.08.69-.24.93-.16.24-.38.44-.66.58.25.1.43.23.56.4.13.16.2.43.21.8l.03.85c0,.24.03.42.06.54.05.2.14.33.28.39v.14h-1.05c-.03-.05-.05-.13-.07-.21s-.03-.25-.04-.5l-.05-1.06c-.02-.42-.17-.69-.45-.83-.16-.08-.41-.12-.75-.12h-1.9v2.72h-.86v-6.35ZM426.54,55.56c.39,0,.7-.08.93-.24.23-.16.34-.45.34-.87,0-.45-.16-.76-.48-.93-.17-.09-.4-.13-.69-.13h-2.04v2.17h1.93Z"/><path class="cls-2" d="M426.1,61.73c-3.31,0-6-2.69-6-6s2.69-6,6-6,6,2.69,6,6-2.69,6-6,6ZM426.1,50.51c-2.88,0-5.22,2.34-5.22,5.22s2.34,5.22,5.22,5.22,5.22-2.34,5.22-5.22-2.34-5.22-5.22-5.22Z"/></g></svg>